<svg id="Layer_1" data-name="Layer 1" xmlns="http://www.w3.org/2000/svg" viewBox="0 0 283.46 141.73"><defs><style>.cls-1{fill:#9c9b9b;}.cls-2{font-size:2.93px;font-family:Arial-BoldMT, Arial;}.cls-11,.cls-12,.cls-2,.cls-4,.cls-5{fill:#1d1d1b;}.cls-12,.cls-2{font-weight:700;}.cls-3{fill-rule:evenodd;}.cls-4,.cls-5{font-size:3.15px;font-family:ArialMT, Arial;}.cls-5,.cls-8{letter-spacing:-0.04em;}.cls-6{letter-spacing:-0.07em;}.cls-7{letter-spacing:0em;}.cls-9{fill:#636362;}.cls-10{fill:#100f10;}.cls-12{font-size:4.96px;font-family:MyriadPro-Bold, Myriad Pro;}.cls-13{letter-spacing:-0.07em;}.cls-14{letter-spacing:0.01em;}.cls-15{letter-spacing:0em;}</style></defs><path class="cls-1" d="M58,115.66H46.46v1.5H58v-1.5m120.06,0H58.12v1.5h120v-1.5m0,0h0"/><path class="cls-1" d="M224.32,119.17H190.47v.07h33.85v-.07m-.68-.61h0v0h0m-44.2-.68v-7.64H223v7.64H179.44m44.88-9h-46.2v1.58h0v8.58h46.23V108.89"/><polygon points="121.04 140.06 121.04 140.29 181.86 140.29 181.86 141.36 121.27 141.36 121.27 140.06 121.04 140.06 121.04 140.29 121.04 140.06 120.82 140.06 120.82 141.81 182.31 141.81 182.31 139.84 120.82 139.84 120.82 140.06 121.04 140.06"/><polyline points="151.73 141.53 151.73 139.28 151.51 139.28 151.51 141.53"/><text class="cls-2" transform="translate(119.93 137.42)">0</text><text class="cls-2" transform="translate(182.58 137.1)">20m</text><polygon points="230.81 17.61 246.94 17.61 246.94 49.2 231.66 49.2 231.66 51 248.74 51 248.74 15.81 230.81 15.81 230.81 17.61 230.81 17.61"/><polygon points="57.16 49.43 41.01 49.43 41.01 17.84 56.93 17.84 56.93 16.04 39.21 16.04 39.21 51.23 57.16 51.23 57.16 49.43 57.16 49.43"/><polygon points="56.83 11.67 56.83 11.78 230.65 11.78 230.65 15.87 56.94 15.87 56.94 11.67 56.83 11.67 56.83 11.78 56.83 11.67 56.72 11.67 56.72 16.1 230.88 16.1 230.88 11.55 56.72 11.55 56.72 11.67 56.83 11.67"/><polygon points="230.75 15.21 250.05 15.21 250.05 52.09 38.14 52.09 38.14 15.21 54.43 15.21 54.43 15.1 38.03 15.1 38.03 52.2 250.16 52.2 250.16 15.1 230.75 15.1 230.75 15.21 230.75 15.21"/><polyline points="56.82 13.34 230.77 13.34 230.77 13.12 56.82 13.12"/><polyline points="56.7 15.03 230.74 15.03 230.74 14.8 56.7 14.8"/><polyline points="56.83 51.02 231.62 51.02 231.62 50.91 56.83 50.91"/><polyline points="57.07 49.93 231.97 49.93 231.97 49.82 57.07 49.82"/><polyline points="56.83 50.51 231.62 50.51 231.62 50.4 56.83 50.4"/><polyline points="52.68 -0.7 54.24 15.4 54.35 15.38 52.79 -0.71"/><polygon points="225.94 7.03 248.37 11.24 248.13 15.27 248.24 15.28 248.48 11.15 225.96 6.92 225.94 7.03 225.94 7.03"/><polygon points="226.35 47.71 226.24 47.74 226.24 47.74 226.26 47.86 226.25 47.89 226.26 47.89 226.27 47.86 226.27 47.86 226.25 47.74 226.35 47.72 226.35 47.71 226.35 47.71"/><path class="cls-3" d="M225.13,49.71v.54a.13.13,0,0,0-.1.09l.06.1v0a.12.12,0,0,0-.12,0v.16h-.13s0,.06,0,.13h0a.13.13,0,0,0-.13,0l0,.13h0l-.13-.06-.07.1h0l-.07-.09-.11.06-.06,0c0-.07,0-.11-.06-.13l-.11,0,0,0c0-.06,0-.1,0-.13h-.11l0,0a.15.15,0,0,0,0-.14l-.11,0v0h0c.07,0,.06-.16,0-.15h0v-.57h0a.08.08,0,0,0,0-.15h0v0l.11,0a.15.15,0,0,0,0-.14l0,0h.11s0-.08,0-.14l0,0,.11,0s.06-.06.06-.12l.06,0,.11.06.07-.09h0l.07.1.13-.07,0,0,0,.12s.08,0,.13,0h0c0,.07,0,.08,0,.12H225v.16a.1.1,0,0,0,.12,0v0l-.06.11A.13.13,0,0,0,225.13,49.71Z"/><path d="M225.13,49.71h0v.54h0a.12.12,0,0,0-.11.09h0l.07.11v0H225l-.08,0h0v.16h-.12l0,.06,0,.07h0l-.09,0h-.05l0,.12,0,0-.12-.06h0l-.07.1h0l-.07-.08h0l-.12.05,0,0h0c0-.07,0-.11-.06-.13h0l-.11,0,0,0h0v-.07l0-.08h-.12l0,0h0l0-.09v0h0l-.1,0,0,0h0l0-.08-.07-.07h0v-.57h0l.07-.07,0-.08h0l0,0,.1,0h0v0l0-.1h0l0,0h.12l0-.08v-.06h0l0,0,.11,0h0a.14.14,0,0,0,.06-.13h0l0,0,.11.06h0l.07-.09h0l.07.1h0l.13-.06,0,0,0,.11h.05l.09,0h0l0,.07,0,.06h.12v.15h0l.08,0h.05v0l-.07.11h0a.13.13,0,0,0,.11.09h0a.11.11,0,0,1-.1-.08h0l.07-.1h0v0H225l-.07,0h0v-.12h0v0h-.13l0-.05,0-.07h0l-.09,0h0l0-.12h0l0,0h0l-.12.06-.07-.09h0l-.07.08-.11,0h0l-.06,0h0a.12.12,0,0,1-.06.12h0l-.11,0h0l0,0h0v.06l0,.08h-.11l0,0h0l0,.09,0,0h0l-.1,0h0l0,0h0l.05.08-.06.06h0v.57h0l.06.06-.05.07h0l0,0h0l.1,0h0l0,0,0,.09h0l0,0h.11l0,.07v.06h0l0,0h0l.11,0h0s.06.05.06.12h0l0,0h0l.11,0,.07.08h0l.07-.09.12.06h0l0,0h0l0-.12h0l.09,0h0l0-.07,0,0H225v0h0v-.12h0l.07,0h.06v0h0l-.07-.1h0a.13.13,0,0,1,.1-.09h0v-.54h0Z"/><path class="cls-3" d="M217.07,49.71v.54c-.07,0-.1,0-.11.09l.07.11v0a.14.14,0,0,0-.13,0v.16h-.13s0,0,0,.12h0c-.06,0-.1,0-.14,0l0,.12h0l-.12-.06-.07.1h0l-.07-.09-.11.06,0,0c0-.07,0-.11-.06-.13l-.12,0,0,0a.13.13,0,0,0,0-.14h-.12l0,0a.12.12,0,0,0,0-.14l-.1,0,0,0h0c.07,0,.07-.15,0-.15h0v-.58h0c.09,0,.09-.12,0-.15h0l0,0,.1,0a.12.12,0,0,0,0-.14l0,0h.12a.13.13,0,0,0,0-.14l0,0,.12,0s.06-.06.06-.12l0,0,.11.06.07-.09h0l.07.1.12-.06h0l0,.12s.08,0,.14,0h0c0,.07,0,.08,0,.12h.13v.16a.12.12,0,0,0,.13,0v0l-.07.11S217,49.69,217.07,49.71Z"/><path d="M217.07,49.71h0v.54h0c-.07,0-.1,0-.11.09h0l.06.11v0h0l-.08,0h0v.15h-.13l0,.06v.07h0l-.09,0h-.05l0,.12,0,0-.12-.06h0l-.07.1h0l-.08-.08h0l-.11.05h0c0-.07,0-.11-.06-.13h0l-.12,0,0,0h0v-.07l0-.07h-.11l0,0h0l0-.09,0,0h0l-.1,0v0h0l0-.08-.07-.07h0v-.58h0l.07-.07,0-.08h0v0l.1,0h0l0,0,0-.09h0l0,0h.11l0-.07v-.07h0l0,0,.12,0h0s.06-.06.06-.13h0l0,0,.11.06h0l.08-.08h0l.07.1h0l.12-.06,0,0,0,.11h.06l.09,0h0v.07l0,.06h.13v.15h0l.08,0h0v0l-.06.11h0c0,.05,0,.08.11.09h0c-.06,0-.1,0-.1-.08h0l.07-.1h0v0H217l-.08,0h0v-.12h0l0,0h-.12l0-.05v-.07h0l-.08,0h-.05l0-.12h0l0,0h0l-.12.06-.07-.09h0l-.07.08-.11,0h0l-.06,0h0a.14.14,0,0,1,0,.12h0l-.12,0h0l0,0h0v.07l0,.07h-.11l0,0h0l0,.09v0h0l-.1,0h0v0h0l0,.07-.07.06h0v.58h0l.07.06,0,.07h0v0h0l.11,0h0v0l0,.09h0l0,0h.11l0,.07v.06h0l0,0h0l.12,0h0a.14.14,0,0,1,0,.12h0l.06,0h0l.11,0,.07.08h0l.07-.09.12.06h0l0,0h0l0-.12h.05l.08,0h0v-.07l0,0h.12l0,0h0v-.12h0l.08,0H217v0h0l-.07-.1h0s0-.07.1-.08h0v-.54h0Z"/><path class="cls-3" d="M209.23,49.71v.54c-.07,0-.1,0-.11.09l.06.11v0a.14.14,0,0,0-.13,0v.16h-.13s0,0,0,.12h0c-.05,0-.1,0-.13,0l0,.12h0l-.12-.06-.07.1h0l-.07-.09-.11.06-.06,0a.14.14,0,0,0,0-.13l-.12,0,0,0c0-.07,0-.11,0-.14h-.12l0,0a.12.12,0,0,0,0-.14l-.11,0v0h0a.08.08,0,0,0,0-.15h0v-.58h0a.08.08,0,0,0,0-.15h0v0l.11,0a.12.12,0,0,0,0-.14l0,0H208s0-.07,0-.14l0,0,.12,0s0-.06,0-.12l.06,0,.11.06.07-.09h0l.07.1.12-.06h0l0,.12s.08,0,.13,0h0c0,.07,0,.08,0,.12H209v.16a.12.12,0,0,0,.13,0v0l-.06.11S209.16,49.69,209.23,49.71Z"/><path d="M209.23,49.71h0v.54h0a.12.12,0,0,0-.11.09h0l.07.11v0h0l-.07,0h0v.13l0,0h-.12l0,.06v.07h0l-.1,0h-.05l0,.12,0,0-.12-.06h0l-.08.1h0l-.07-.08h0l-.11.05h0c0-.07,0-.11-.06-.13h0l-.12,0,0,0h0v-.07l0-.07h-.12v0h0l0-.09,0,0h0l-.1,0,0,0h0l0-.08-.07-.07h0v-.58h0l.07-.07,0-.08h0l0,0,.1,0h0l0,0,0-.09h0v0H208l0-.07v-.07h0l0,0,.11,0h0s.06-.06.06-.13h0l0,0,.11.06h0l.07-.08h0l.07.1h0l.12-.06,0,0,0,.11h.05l.1,0h0v.07l0,.06H209l0,0v.12h0l.07,0h0v0l-.06.11h0a.12.12,0,0,0,.11.09h0c-.07,0-.1,0-.11-.08h0l.07-.1h0v0h-.06l-.07,0h0v-.12h0v0h-.12l0-.05v-.07h0l-.09,0h0l0-.12h0l0,0h0l-.12.06-.07-.09h0l-.07.08-.11,0h0l-.06,0h0a.12.12,0,0,1-.06.12h0l-.12,0h0l0,0h0v.07l0,.07h-.11l0,0h0l0,.09,0,0h0l-.11,0h0v0h0l0,.07-.06.06h0v.58h0l.06.06,0,.07h0v0h0l.11,0h0l0,0,0,.09h0l0,0H208l0,.07v.06h0l0,0h0l.12,0h0a.12.12,0,0,1,.06.12h0l.06,0h0l.11,0,.07.08h0l.07-.09.12.06h0l0,0h0l0-.12h0l.09,0h0v-.07l0,0H209v0h0v-.12h0l.07,0h.06v0h0l-.07-.1h0s0-.07.11-.08h0v-.54h0Z"/><path class="cls-3" d="M201.37,49.75v.54c-.07,0-.1.05-.11.09l.06.11v0a.14.14,0,0,0-.13,0v.16h-.13s0,.06,0,.13h0c-.05,0-.1,0-.13,0l0,.12h0l-.12-.06-.07.1h0l-.07-.09-.11.06-.06,0a.14.14,0,0,0-.05-.13l-.12,0,0,0c0-.07,0-.11,0-.14H200l0,0a.12.12,0,0,0,0-.14l-.1,0,0,0h0c.07,0,.07-.16,0-.15h0v-.58h0a.08.08,0,0,0,0-.15h0l0,0,.1,0a.12.12,0,0,0,0-.14l0,0h.12s0-.07,0-.14l0,0,.12,0s.05-.06.05-.12l.06,0,.11.06.07-.09h0l.07.1.12-.06h0l0,.12s.08,0,.13,0h0c0,.07,0,.08,0,.12h.13v.16a.12.12,0,0,0,.13,0v0l-.06.11S201.3,49.73,201.37,49.75Z"/><path d="M201.37,49.75h0v.54h0c-.06,0-.1,0-.1.09h0l.07.11v0h-.05l-.07,0h0v.13l0,0h-.12l0,.06v.07h0l-.1,0h0l0,.12,0,0-.12-.06h0l-.07.11h0l-.07-.08h0l-.11.05-.05,0h0c0-.07,0-.11-.06-.13h0l-.12,0,0,0h0v-.07l0-.08H200v0h0l0-.09,0,0h0l-.1,0,0,0h0l.05-.08-.07-.07h0v-.58h0l.07-.07-.05-.08h0l0,0,.1,0h0l0,0,0-.09h0v0h.12l0-.07V49.2h0l0,0,.11,0h0a.14.14,0,0,0,.06-.13h0l.05,0,.11.06h0l.07-.08h0l.06.1h0l.12-.06,0,0,0,.11h0l.1,0h0v.07l0,.06h.12l0,0v.12h0l.07,0h.05v0l-.06.11h0c0,.05,0,.08.1.09h0c-.07,0-.1,0-.11-.08h0l.07-.1h0v0h-.06l-.07,0h0v-.12h0l0,0h-.12l0,0V49.2h0l-.09,0h0l0-.12h0l0,0h0l-.12.06-.07-.09h0l-.07.08-.11,0h0l-.06,0h0a.12.12,0,0,1-.06.12h0l-.12,0h0l0,0h0v.07l0,.07H200l0,0h0l0,.09,0,0h0l-.11,0h0v0h0l0,.08-.06.06h0v.58h0l.06.06,0,.07h0v0h0l.11,0h0l0,0,0,.09h0l0,0h.11l0,.07v.06h0l0,0h0l.12,0h0s.06.05.06.12h0l.06,0h0l.11,0,.07.08h0l.07-.09.12.06h0l0,0h0l0-.12h0l.09,0h0v-.07l0-.05h.12l0,0h0v-.12h0l.07,0h.06v0h0l-.07-.1h0s0-.07.11-.08h0v-.54h0Z"/><path class="cls-3" d="M193.25,49.1v.54c-.07,0-.1,0-.11.09l.07.1v0c-.06,0-.1,0-.13,0v.16h-.13s0,.06,0,.13h0c-.06,0-.1,0-.14,0l0,.12,0,0-.12-.06-.07.1h0l-.07-.09-.11.06-.05,0c0-.07,0-.11-.06-.13l-.12,0,0,0a.12.12,0,0,0,0-.13h-.12l0,0a.13.13,0,0,0,0-.14l-.1,0,0,0h0c.07,0,.07-.16,0-.15h0v-.57h0c.09,0,.09-.12,0-.14h0l0,0,.1,0a.11.11,0,0,0,0-.13l0,0H192a.13.13,0,0,0,0-.14l0,0,.12,0s.05-.06.06-.12l.05,0,.11,0,.07-.08h0l.07.1.12-.07,0,0,0,.12a.13.13,0,0,0,.14,0h0c0,.07,0,.08,0,.12h.13v.16a.12.12,0,0,0,.13,0v0l-.07.11S193.18,49.08,193.25,49.1Z"/><path d="M193.25,49.1h0v.54h0c-.07,0-.11,0-.11.1h0l.06.1v0h0l-.08,0h0v.16h-.13l0,.06v.07h0l-.09,0h-.06l0,.12,0,0-.12-.07h0l-.07.1h0l-.08-.08h0l-.11.06-.05,0h0c0-.07,0-.11-.06-.13h0l-.12,0,0,0h0v-.06l0-.08h-.12v0h0l0-.09,0,0h0l-.1,0,0,0h0l.05-.08-.07-.07h0v-.57h0l.07-.08-.05-.08h0l0,0,.1,0h0l0-.06,0-.09h0v0H192l0-.08v-.06h0l0,0,.12,0h0a.14.14,0,0,0,.06-.13h0l.05,0,.11.06h0l.08-.09h0l.06.1h0l.12-.06h0l0,.12h0l.05,0,.09,0h0v.06l0,.06h.13v.16h0l.08,0h0v0l-.06.11h0s0,.07.11.09h0a.12.12,0,0,1-.11-.08h0l.07-.11h0v0h0l-.08,0h0v-.13h0l0,0h-.12l0-.06v-.06h0l-.08,0h-.05l0-.12h0l0,0h0l-.12.06-.07-.1h0l-.07.09-.11-.06h0l-.06,0h0a.12.12,0,0,1-.06.12h0l-.12,0h0l0,0h0v.06l0,.07h-.11l0,0h0l0,.08v.05h0l-.11,0h0v0h0l0,.07-.06.07h0v.57h0l.06.07,0,.07h0v0h0l.11,0h0v0l0,.09h0l0,0H192l0,.07v.06h0l0,0h0l.12,0h0s.06,0,.06.12h0l.06,0h0l.11-.06.07.09h0l.07-.1.12.06h0l0,0h0l0-.13h0l.05,0,.08,0h0v-.07l0,0h.12l0,0h0v-.13h0l.08,0h0v-.05h0l-.07-.11h0s.05-.07.11-.09h0V49.1h0Z"/><path class="cls-3" d="M185.32,49.67v.54a.13.13,0,0,0-.1.09l.06.11v0a.12.12,0,0,0-.12,0v.16H185s0,0,0,.12h0c-.05,0-.1,0-.13,0l0,.12h0l-.13-.06-.07.1h0l-.07-.09-.11.06-.06,0c0-.07,0-.11-.06-.13l-.11,0,0,0c0-.07,0-.11,0-.14H184l0,0a.15.15,0,0,0,0-.14l-.11,0v0h0a.08.08,0,0,0,0-.15h0v-.58h0a.08.08,0,0,0,0-.15h0v0l.11,0a.15.15,0,0,0,0-.14l0,0h.11s0-.07,0-.14l0,0,.11,0a.14.14,0,0,0,.06-.13l.06,0,.11.06.07-.09h0l.07.1.13-.06h0l0,.12s.08,0,.13,0h0c0,.07,0,.09,0,.12h.13v.16a.12.12,0,0,0,.12,0v0l-.06.11A.13.13,0,0,0,185.32,49.67Z"/><path d="M185.32,49.67h0v.54h0a.12.12,0,0,0-.11.09h0l.07.11v0h-.05l-.08,0h0v.15H185l0,.06,0,.07h0l-.09,0h-.05l0,.12,0,0-.12-.06h0l-.07.1h0l-.07-.08h0l-.12.05h0c0-.07,0-.11-.06-.13h0l-.11,0,0,0h0v-.07l0-.07H184l0,0h0l0-.09v0h0l-.1,0,0,0h0l0-.08-.07-.07h0v-.58h0l.07-.07,0-.08h0l0,0,.1,0h0v0l0-.09h0l0,0h.12l0-.07v-.07h0l0,0,.11,0h0s.06-.06.06-.13h0l.11,0h0l.07-.08h0l.07.1h0l.13-.06,0,0,0,.12h.05l.09,0h0l0,.07,0,.06h.12v.15h0l.08,0h.05v0l-.07.11h0a.12.12,0,0,0,.11.09h0a.11.11,0,0,1-.1-.08h0l.07-.1h0v0h-.06l-.07,0h0v-.12h0v0H185l0-.05,0-.07h0l-.09,0h0l0-.12h0l0,0h0l-.12.06-.07-.09h0l-.07.08-.11,0h0l-.06,0h0a.12.12,0,0,1-.06.12h0l-.11,0h0l0,0h0v.06l0,.07H184l0,0h0l0,.09,0,0h0l-.1,0h0l0,0h0l0,.07-.06.06h0v.58h0l.06.06,0,.07h0l0,0h0l.1,0h0l0,0,0,.09h0l0,0h.11l0,.07v.06h0l0,0h0l.11,0h0a.12.12,0,0,1,.06.12h0l0,0h0l.11,0,.07.08h0l.07-.1.12.06h0l0,0h0l0-.12h0l.09,0h0l0-.07,0,0h.13v0h0v-.12h0l.07,0h.06v0h0l-.07-.1h0a.11.11,0,0,1,.1-.08h0v-.54h0Z"/><path class="cls-3" d="M177.27,49.59v.54c-.07,0-.1,0-.11.09l.06.11v0a.12.12,0,0,0-.13,0v.16H177s0,0,0,.12h0c-.05,0-.1,0-.13,0l0,.12h0l-.12-.06-.07.1h0l-.07-.09-.11.06-.06,0c0-.06,0-.11-.05-.12l-.12,0,0,0c0-.07,0-.11,0-.14h-.12l0,0a.12.12,0,0,0,0-.14l-.11,0v0h0a.08.08,0,0,0,0-.15h0v-.58h0a.08.08,0,0,0,0-.15h0v0l.11,0a.12.12,0,0,0,0-.14l0,0H176s0-.07,0-.14l0,0,.12,0a.14.14,0,0,0,.05-.13l.06,0,.11.06.07-.09h0l.07.1.12-.06h0l0,.12s.08,0,.13,0h0c0,.07,0,.09,0,.12h.13v.16a.14.14,0,0,0,.13,0v0l-.06.11S177.2,49.57,177.27,49.59Z"/><path d="M177.27,49.59h0v.54h0a.12.12,0,0,0-.11.09h0l.07.11v0h-.05l-.07,0h0v.12l0,0H177l0,.06v.07h0l-.1,0h-.05l0,.12,0,0-.12-.06h0l-.08.1h0l-.07-.08h0l-.11.06-.05,0h0c0-.07,0-.11-.06-.13h0l-.12,0,0,0h0v-.07l0-.07h-.12v0h0l0-.09,0-.05h0l-.1,0,0,0h0l.05-.08-.07-.07h0v-.58h0l.07-.07-.05-.08h0l0,0,.1,0h0l0-.05,0-.09h0v0H176l0-.07V49h0l0,0,.11,0h0s.06-.06.06-.13h.05l.11,0h0l.07-.08h0l.07.1h0l.12-.06,0,0,0,.12h.05l.1,0h0v.07l0,.06h.12l0,0v.12h0l.07,0h.05v0l-.06.11h0a.12.12,0,0,0,.11.09h0c-.07,0-.1,0-.11-.08h0l.07-.1h0v0h-.06l-.07,0h0v-.12h0v0H177l0,0V49h0l-.09,0h0l0-.12h0l0,0h0l-.12.06-.07-.09h0l-.07.08-.11-.05h0l-.06,0h0a.12.12,0,0,1-.06.12h0l-.12,0h0l0,0h0v.06l0,.07h-.11l0,0h0l0,.09,0,.05h0l-.11,0h0v0h0l0,.07-.06.06h0v.58h0l.06.06,0,.07h0v0h0l.11,0h0l0,0,0,.09h0l0,0H176l0,.07v.07h0l0,0h0l.12,0h0a.12.12,0,0,1,.06.12h0l.06,0h0l.11-.05.07.08h0l.07-.1.12.06h0l0,0h0l0-.12h0l.09,0h0v-.07l0,0h.12v0h0v-.12h0l.07,0h.06v0h0l-.07-.11h0s0-.07.11-.08h0v-.55Z"/><path class="cls-3" d="M169.19,49.71v.54c-.07,0-.1,0-.11.09l.06.11v0a.14.14,0,0,0-.13,0v.16h-.13s0,0,0,.12h0s-.1,0-.13,0l0,.12h0l-.12-.06-.07.1h0l-.07-.09-.11.06-.06,0a.14.14,0,0,0,0-.13l-.12,0,0,0c0-.07,0-.11,0-.14h-.12l0,0a.12.12,0,0,0,0-.14l-.1,0,0,0h0a.08.08,0,0,0,0-.15h0v-.58h0a.08.08,0,0,0,0-.15h0l0,0,.1,0a.12.12,0,0,0,0-.14l0,0h.12s0-.07,0-.14l0,0,.12,0s0-.06,0-.12l.06,0,.11.06.07-.09h0l.07.1.12-.06h0l0,.12s.08,0,.13,0h0c0,.07,0,.08,0,.12H169v.16a.12.12,0,0,0,.13,0v0l-.06.11S169.12,49.69,169.19,49.71Z"/><path d="M169.19,49.71h0v.54h0a.12.12,0,0,0-.11.09h0l.07.11v0h0l-.07,0h0v.13l0,0h-.12l0,.06v.07h0l-.1,0h0l0,.12,0,0-.12-.06h0l-.07.1h0l-.07-.08h0l-.11.05h-.05c0-.07,0-.11-.06-.13h0l-.12,0,0,0h0v-.07l0-.07h-.12v0h0l0-.09,0,0h0l-.1,0,0,0h0l.05-.08-.07-.07h0v-.58h0l.07-.07-.05-.08h0l0,0,.1,0h0l0,0,0-.09h0v0h.12l0-.07v-.07h0l0,0,.11,0h0s.06-.06.06-.13h0l.05,0,.11.06h0l.07-.08h0l.06.1h0l.12-.06,0,0,0,.11h0l.1,0h0v.07l0,.06H169l0,0v.12h0l.07,0h0v0l-.06.11h0a.12.12,0,0,0,.11.09h0c-.07,0-.1,0-.11-.08h0l.07-.1h0v0h-.06l-.07,0h0v-.12h0l0,0h-.12l0-.05v-.07h0l-.09,0h0l0-.12h0l0,0h0l-.12.06-.07-.09h0l-.07.08-.11,0h0l-.06,0h0a.12.12,0,0,1-.06.12h0l-.12,0h0l0,0h0v.07l0,.07h-.11l0,0h0l0,.09,0,0h0l-.11,0h0v0h0l0,.07-.06.06h0v.58h0l.06.06,0,.07h0v0h0l.11,0h0l0,0,0,.09h0l0,0h.11l0,.07v.06h0l0,0h0l.12,0h0a.12.12,0,0,1,.06.12h0l.06,0h0l.11,0,.07.08h0l.07-.09.12.06h0l0,0h0l0-.12h0l.09,0h0v-.07l0,0H169v0h0v-.12h0l.07,0h.06v0h0l-.07-.1h0s0-.07.11-.08h0v-.54h0Z"/><path class="cls-3" d="M161.16,49.75v.54a.13.13,0,0,0-.1.09l.06.11v0a.14.14,0,0,0-.13,0v.16h-.13s0,.06,0,.13h0c-.05,0-.1,0-.13,0l0,.12h0l-.12-.06-.07.1h0l-.07-.09-.11.06-.06,0a.14.14,0,0,0,0-.13l-.12,0,0,0c0-.07,0-.11,0-.14h-.12l0,0a.12.12,0,0,0,0-.14l-.11,0v0h0c.07,0,.06-.16,0-.15h0v-.58h0a.08.08,0,0,0,0-.15h0v0l.11,0a.12.12,0,0,0,0-.14l0,0h.12s0-.07,0-.14l0,0,.12,0s0-.06,0-.12l.06,0,.11.06.07-.09h0l.07.1.12-.06h0l0,.12s.08,0,.13,0h0c0,.07,0,.08,0,.12H161v.16a.12.12,0,0,0,.13,0v0l-.06.11A.13.13,0,0,0,161.16,49.75Z"/><path d="M161.16,49.75h0v.54h0a.12.12,0,0,0-.11.09h0l.07.11v0h-.05l-.07,0h0v.13l0,0h-.12l0,.06v.07h0l-.1,0h-.05l0,.12,0,0-.12-.06h0l-.08.11h0l-.07-.08h0l-.11.05,0,0h0c0-.07,0-.11-.06-.13h0l-.12,0,0,0h0v-.07l0-.08h-.12v0h0l0-.09,0,0h0l-.1,0,0,0h0l0-.08-.07-.07h0v-.58h0l.07-.07,0-.08h0l0,0,.1,0h0l0,0,0-.09h0v0h.12l0-.07V49.2h0l0,0,.11,0h0a.14.14,0,0,0,.06-.13h0l0,0,.11.06h0l.07-.08h0l.07.1h0l.12-.06,0,0,0,.11h.05l.1,0h0v.07l0,.06H161l0,0v.12h0l.07,0h.05v0l-.06.11h0a.12.12,0,0,0,.11.09h0c-.07,0-.1,0-.11-.08h0l.07-.1h0v0h-.06l-.07,0h0v-.12h0v0h-.13l0,0V49.2h0l-.09,0h0l0-.12h0l0,0h0l-.12.06-.07-.09h0l-.07.08-.11,0h0l-.06,0h0a.12.12,0,0,1-.06.12h0l-.12,0h0l0,0h0v.07l0,.07h-.11l0,0h0l0,.09,0,0h0l-.11,0h0v0h0l0,.08-.06.06h0v.58h0l.06.06,0,.07h0v0h0l.11,0h0l0,0,0,.09h0l0,0h.11l0,.07v.06h0l0,0h0l.12,0h0s.06.05.06.12h0l.06,0h0l.11,0,.07.08h0l.07-.09.12.06h0l0,0h0l0-.12h0l.09,0h0v-.07l0-.05H161v0h0v-.12h0l.07,0h.06v0h0l-.07-.1h0s0-.07.11-.08h0v-.54h0Z"/><path class="cls-3" d="M145,49.61v.54c-.06,0-.1.05-.11.09l.07.11v0a.12.12,0,0,0-.13,0v.16h-.13s0,.05,0,.12h0a.13.13,0,0,0-.14,0l0,.12,0,0-.12-.07-.07.1h0l-.08-.09-.11.06,0,0a.12.12,0,0,0-.06-.12l-.12,0,0,0a.13.13,0,0,0,0-.14h-.12v0a.14.14,0,0,0,0-.14l-.1,0,0,0h0c.07,0,.07-.15,0-.14h0V49.6h0c.09,0,.09-.12,0-.15h0l0,0,.1,0a.14.14,0,0,0,0-.14v0h.12a.12.12,0,0,0,0-.13l0,0,.12,0s.06-.06.06-.13l0,0,.11.06.08-.09h0l.07.1.12-.06,0,0,0,.12s.08,0,.14,0h0c0,.07,0,.09,0,.13h.13v.17s.07,0,.13,0v0l-.07.1S144.89,49.59,145,49.61Z"/><path d="M145,49.61h0v.54h0c-.07,0-.1.05-.11.09h0l.06.11v0h-.05l-.08,0h0v.16h-.13l0,.06,0,.07h0l-.09,0h-.05l0,.12h0l-.12-.06h0l-.07.1h0l-.07-.09h0l-.11.06,0,0h0a.14.14,0,0,0-.06-.13h0l-.12,0,0,0h0v-.06l0-.08h-.11l0,0h0l0-.09,0-.06h0l-.1,0v0h0l.06-.08-.07-.08h0V49.6h0l.07-.07-.06-.08h0v0l.1,0h0l0,0,0-.09h0l0,0h.11l0-.08v-.06h0l0,0,.12,0h0s.06-.06.06-.13h0l0,0,.11.05h0l.08-.09h0l.07.09h0l.12-.07,0,0,0,.12h.05l.09,0h0l0,.07,0,.06h.13v.16h0l.08,0h.05v0l-.06.1h0s0,.08.11.1h0c-.06,0-.1,0-.1-.09h0l.06-.11h0v0h-.05l-.07,0h0v-.13h0v0h-.13l0,0v-.07h0l-.08,0-.05,0h0l0-.13h0l0,0h0l-.12.07-.07-.1h0l-.07.08-.11,0h0l0,0h0c0,.07,0,.11,0,.12h0l-.12,0h0l0,0h0v.06l0,.07h-.12l0,0h0l0,.09v0h0l-.1,0h0v0h0l0,.07-.06.06h0v.59h0l.06.07,0,.07h0v0h0l.11,0h0v.05l0,.08h0l0,0h.12l0,.08v.06h0l0,0h0l.12,0h0a.14.14,0,0,1,0,.12h0l.06,0h0l.11-.06.07.08h0l.07-.1.12.06h0l0,0h0l0-.12h.05l.08,0h0v-.07l0-.05h.12l0,0h0v-.13h0l.07,0h.05v0h0l-.06-.11h0s0-.07.1-.08h0v-.55Z"/><path class="cls-3" d="M153,49.61v.54c-.07,0-.1.05-.11.09l.07.11v0a.12.12,0,0,0-.13,0v.16h-.13s0,.05,0,.12h0a.13.13,0,0,0-.14,0l0,.12,0,0-.12-.07-.07.1h0l-.07-.09-.11.06-.05,0c0-.06,0-.1-.06-.12l-.12,0,0,0a.13.13,0,0,0,0-.14h-.12l0,0a.12.12,0,0,0,0-.14l-.1,0,0,0h0c.07,0,.07-.15,0-.14h0V49.6h0c.09,0,.09-.12,0-.15h0l0,0,.1,0a.13.13,0,0,0,0-.14l0,0h.12a.12.12,0,0,0,0-.13l0,0,.12,0s.05-.06.06-.13l.05,0,.11.06.07-.09h0l.07.1.12-.06,0,0,0,.12s.08,0,.14,0h0c0,.07,0,.09,0,.13h.13v.17s.07,0,.13,0v0l-.07.1S152.9,49.59,153,49.61Z"/><path d="M153,49.61h0v.54h0c-.07,0-.1.05-.11.09h0l.06.11v0h0l-.08,0h0v.16h-.13l0,.06v.07h0l-.09,0h-.06l0,.12h0l-.12-.06h0l-.07.1h0l-.08-.09h0l-.11.06-.05,0h0a.14.14,0,0,0-.06-.13h0l-.12,0,0,0h0v-.06l0-.08h-.12v0h0l0-.09,0-.06h0l-.1,0,0,0h0l.05-.08-.07-.08h0V49.6h0l.07-.07-.05-.08h0l0,0,.1,0h0l0,0,0-.09h0v0h.12l0-.08v-.06h0l0,0,.12,0h0S152,49,152,49h0l.05,0,.11.05h0l.08-.09h0l.06.09h0l.12-.07,0,0,0,.12h.06l.09,0h0v.07l0,.06h.13v.16h0l.08,0h0v0l-.06.1h0s0,.08.11.1h0c-.06,0-.1,0-.11-.09h0l.07-.11h0v0h0l-.08,0h0v-.13h0l0,0h-.12l0,0v-.07h0l-.08,0-.05,0h0l0-.13h0l0,0h0l-.12.07-.07-.1h0l-.07.08-.11,0h0l-.06,0h0q0,.11-.06.12h0l-.12,0h0l0,0h0v.06l0,.07h-.11l0,0h0l0,.09v0h0l-.11,0h0v0h0l0,.07-.06.06h0v.59h0l.06.07,0,.07h0v0h0l.11,0h0v.05l0,.08h0l0,0h.11l0,.08v.06h0l0,0h0l.12,0h0a.12.12,0,0,1,.06.12h0l.06,0h0l.11-.06.07.08h0l.07-.1.12.06h0l0,0h0l0-.12h.05l.08,0h0v-.07l0-.05h.12l0,0h0v-.13h0l.08,0h0v0h0l-.07-.11h0a.12.12,0,0,1,.11-.08h0v-.55Z"/><path class="cls-3" d="M136.91,49.63v.54c-.06,0-.1,0-.11.09l.07.11v0a.12.12,0,0,0-.13,0v.16h-.13s0,0,0,.12h0c-.06,0-.1,0-.14,0l0,.12h0l-.12-.06-.07.1h0l-.08-.09-.11.06-.05,0a.14.14,0,0,0-.06-.13l-.12,0,0,0a.13.13,0,0,0,0-.14h-.12v0a.14.14,0,0,0,0-.14l-.1,0,0,0h0c.07,0,.07-.15,0-.15h0v-.58h0c.09,0,.09-.12,0-.15h0l0,0,.1,0a.14.14,0,0,0,0-.14v0h.12a.13.13,0,0,0,0-.14l0,0,.12,0s.06-.06.06-.13l.05,0,.11.06.08-.09h0l.07.1.12-.06h0l0,.12s.08,0,.14,0h0c0,.07,0,.09,0,.12h.13v.16a.14.14,0,0,0,.13,0v0l-.07.11S136.85,49.61,136.91,49.63Z"/><path d="M136.91,49.63h0v.54h0c-.07,0-.1,0-.11.09h0l.06.11v0h-.05l-.08,0h0v.15h-.13l0,.06,0,.07h0l-.09,0h-.05l0,.12,0,0-.12-.06h0l-.07.1h0l-.07-.08h0l-.11.05h-.05c0-.07,0-.11-.06-.13h0l-.12,0,0,0h0v-.07l0-.07h-.11l0,0h0l0-.09,0-.05h0l-.1,0v0h0l.06-.08-.07-.07h0v-.58h0l.07-.07-.06-.08h0v0l.1,0h0l0,0,0-.09h0l0,0h.11l0-.07v-.07h0l0,0,.12,0h0s.06-.06.06-.13h.05l.11,0h0l.08-.08h0l.07.1h0l.12-.06,0,0,0,.12h.05l.09,0h0l0,.07,0,.06h.13v.15h0l.08,0h.05v0l-.06.11h0c0,.05,0,.08.11.09h0c-.06,0-.1,0-.1-.08h0l.06-.1h0v0h-.05l-.07,0h0v-.12h0l0,0h-.12l0-.05v-.07h0l-.08,0h-.05l0-.12h0l0,0h0l-.12.06-.07-.09h0l-.07.08-.11,0h0l-.05,0h0a.14.14,0,0,1,0,.12h0l-.12,0h0l0,0h0v.06l0,.07h-.12l0,0h0l0,.09v0h0l-.1,0h0v0h0l.05.07-.06.06h0v.58h0l.06.06-.05.07h0v0h0l.11,0h0v0l0,.09h0l0,0h.12l0,.07v.06h0l0,0h0l.12,0h0a.14.14,0,0,1,0,.12h0l.06,0h0l.11-.05.07.08h0l.07-.1.12.06h0l0,0h0l0-.12h.05l.08,0h0v-.07l0,0h.12l0,0h0v-.12h0l.07,0h.05v0h0l-.06-.11h0s0-.07.1-.08h0v-.55Z"/><path class="cls-3" d="M128.93,49.71v.54c-.06,0-.1,0-.11.09l.07.11v0a.14.14,0,0,0-.13,0v.16h-.12s0,0,0,.12h0c-.06,0-.1,0-.14,0l0,.12h0l-.13-.06-.07.1h0l-.08-.09-.11.06,0,0c0-.07,0-.11-.06-.13l-.12,0,0,0a.13.13,0,0,0,0-.14h-.11l0,0a.12.12,0,0,0,0-.14l-.1,0,0,0h0c.07,0,.07-.15,0-.15h0v-.58h0c.09,0,.09-.12,0-.15h0l0,0,.1,0a.12.12,0,0,0,0-.14l0,0h.11a.13.13,0,0,0,0-.14l0,0,.12,0s.06-.06.06-.12l0,0,.11.06.08-.09h0l.07.1.13-.06h0l0,.12s.08,0,.14,0h0c0,.07,0,.08,0,.12h.12v.16a.12.12,0,0,0,.13,0v0l-.07.11S128.87,49.69,128.93,49.71Z"/><path d="M128.93,49.71h0v.54h0c-.07,0-.1,0-.11.09h0l.06.11v0h0l-.08,0h0v.15h-.13l0,.06,0,.07h0l-.09,0h0l0,.12,0,0-.13-.06h0l-.07.1h0l-.07-.08h0l-.11.05h0c0-.07,0-.11-.06-.13h0l-.11,0,0,0h0v-.07l0-.07h-.11l0,0h0l0-.09v0h0l-.11,0v0h0l.06-.08-.07-.07h0v-.58h0l.07-.07-.06-.08h0v0l.1,0h0v0l0-.09h0l0,0h.11l0-.07v-.07h0l0,0,.11,0h0s.06-.06.06-.13h0l0,0,.11.06h0l.08-.08h0l.07.1h0l.13-.06,0,0,0,.11h0l.09,0h0l0,.07,0,.06h.13v.15h0l.08,0h0v0l-.06.11h0c0,.05,0,.08.11.09h0a.11.11,0,0,1-.1-.08h0l.06-.1h0v0h-.06l-.07,0h0v-.12h0v0h-.13l0-.05,0-.07h0l-.09,0h0l0-.12h0l0,0h0l-.13.06-.06-.09h0l-.07.08L128,49h0l0,0h0a.14.14,0,0,1-.05.12h0l-.11,0h0l0,0h0v.07l0,.07h-.12l0,0h0l0,.09v0h0l-.1,0h0l0,0h0l0,.07-.06.06h0v.58h0l.06.06,0,.07h0l0,0h0l.1,0h0v0l0,.09h0l0,0h.12l0,.07v.06h0l0,0h0l.12,0h0a.14.14,0,0,1,.05.12h0l.06,0h0l.11,0,.07.08h0l.07-.09.12.06h0l0,0h0l0-.12h0l.09,0h0l0-.07,0,0h.13v0h0v-.12h0l.07,0h0v0h0l-.06-.1h0a.11.11,0,0,1,.1-.08h0v-.54h0Z"/><path class="cls-3" d="M120.81,49.69v.54c-.06,0-.1.05-.11.09l.07.11v0a.12.12,0,0,0-.13,0v.12l0,0h-.12s0,.05,0,.12h0a.12.12,0,0,0-.14,0l0,.12,0,0-.13-.07-.07.1h0l-.08-.09-.11.06,0,0a.12.12,0,0,0-.06-.12l-.11,0,0,0a.13.13,0,0,0,0-.14h-.11l0,0a.12.12,0,0,0,0-.14l-.1,0,0,0h0c.08,0,.07-.15,0-.14h0v-.57h0c.09,0,.1-.12,0-.15h0l0,0,.1,0s0-.08,0-.14l0,0h.11a.12.12,0,0,0,0-.13l0,0,.11,0s.06-.06.06-.13l0,0,.11.06L120,49h0l.07.1.13-.06,0,0,0,.12a.15.15,0,0,0,.14,0h0c0,.07,0,.09,0,.13h.12l0,0v.12a.14.14,0,0,0,.13,0v0l-.07.1S120.75,49.67,120.81,49.69Z"/><path d="M120.81,49.69h0v.54h0a.13.13,0,0,0-.11.09h0l.06.11v0h-.05l-.08,0h0v.16h-.13l0,.06,0,.07h0l-.09,0h0l0,.12,0,0-.13-.06h0l-.07.1h0l-.07-.09h0l-.11.06,0,0h0a.14.14,0,0,0-.06-.13h0l-.11,0,0,0h0v-.06l0-.08h-.11l0,0h0l0-.1v-.05h0l-.11,0v0h0l.06-.08-.07-.07h0v-.57h0l.07-.07-.06-.08h0v0l.1,0h0V49.4l0-.09h0l0,0h.11l0-.08v-.07h0l0,0,.11,0h0s.06-.06.06-.13h0l0,0,.11,0h0L120,49h0l.07.09h0l.13-.07,0,0,0,.12h0l.09,0h0l0,.07,0,.06h.13v.15h0l.08,0h.05v0l-.06.11h0a.12.12,0,0,0,.11.09h0a.13.13,0,0,1-.1-.09h0l.06-.1h0v0h-.06l-.07,0h0v-.12h0v0h-.13l0,0,0-.07h0l-.09,0h0l0-.12h0l0,0h0l-.13.06-.06-.09h0l-.07.08-.11-.05h0l0,0h0c0,.07,0,.11,0,.12h0l-.11,0h0l0,0h0v.06l0,.07h-.12l0,0h0l0,.09v.05h0l-.1,0h0l0,0h0l.05.07-.06.06h0v.59h0l.06.06-.05.08h0l0,0h0l.1,0h0v0l0,.09h0l0,0h.12l0,.08v.06h0l0,0h0l.12,0h0s0,.06,0,.12h0l.06,0h0l.11-.06.07.08h0l.07-.1.12.06h0l0,0h0l0-.12h0l.09,0h0l0-.07,0-.05h.13v0h0v-.12h0l.07,0h.06v0h0l-.06-.11h0a.11.11,0,0,1,.1-.08h0v-.55Z"/><path class="cls-3" d="M112.65,49.69v.54c-.06,0-.1.05-.1.09l.06.11v0a.1.1,0,0,0-.12,0v.12l0,0h-.12s0,.05,0,.12h0a.12.12,0,0,0-.14,0l0,.12,0,0-.13-.07-.07.1h0l-.08-.09-.11.06-.05,0a.12.12,0,0,0-.06-.12l-.11,0,0,0a.13.13,0,0,0,0-.14h-.11l0,0a.12.12,0,0,0,0-.14l-.1,0v0h0c.08,0,.07-.15,0-.14h0v-.57h0c.09,0,.1-.12,0-.15h0v0l.1,0s0-.08,0-.14l0,0h.11a.12.12,0,0,0,0-.13l0,0,.11,0s.06-.06.06-.13l.05,0,.11.06.08-.09h0l.07.1.13-.06,0,0,0,.12a.15.15,0,0,0,.14,0h0c0,.07,0,.09,0,.13h.12l0,0v.12a.12.12,0,0,0,.12,0v0l-.06.1S112.59,49.67,112.65,49.69Z"/><path d="M112.65,49.69h0v.54h0a.13.13,0,0,0-.11.09h0l.07.11v0h0l-.08,0h0v.16h-.13l0,.06,0,.07h0l-.09,0h0l0,.12,0,0-.12-.06h0l-.07.1h0l-.07-.09h0l-.12.06-.05,0h0a.14.14,0,0,0-.06-.13h0l-.11,0,0,0h0v-.06l0-.08h-.12l0,0h0l0-.1v-.05h0l-.11,0v0h0l0-.08-.07-.07h0v-.57h0l.07-.07,0-.08h0v0l.11,0h0V49.4l0-.09h0l0,0h.12l0-.08v-.07h0l0,0,.11,0h0s.06-.06.06-.13h0l.05,0,.11,0h0l.07-.09h0l.07.09h0l.13-.07,0,0,0,.12h0l.09,0h0l0,.07,0,.06h.13v.15h0l.08,0h0v0l-.07.11h0a.12.12,0,0,0,.11.09h0a.13.13,0,0,1-.1-.09h0l.06-.1h0v0h-.06l-.07,0h0v-.12h0v0h-.13l0,0,0-.07h0l-.09,0h0l0-.12h0l0,0h0l-.13.06L111.9,49h0l-.08.08-.1-.05h0l-.05,0h0q0,.11-.06.12h0l-.11,0h0l0,0h0v.06l0,.07h-.11l0,0h0l0,.09v.05h0l-.1,0h0l0,0h0l0,.07-.06.06h0v.59h0l.06.06,0,.08h0l0,0h0l.1,0h0v0l0,.09h0l0,0h.12l0,.08v.06h0l0,0h0l.11,0h0a.12.12,0,0,1,.06.12h0l.05,0h0l.11-.06.07.08h0l.06-.1.12.06h0l0,0h0l0-.12h0l.09,0h0l0-.07,0-.05h.13v0h0v-.12h0l.07,0h.06v0h0l-.06-.11h0a.11.11,0,0,1,.1-.08h0v-.55h0Z"/><path class="cls-3" d="M104.71,49.65v.54c-.06,0-.1.05-.11.09l.07.11v0a.12.12,0,0,0-.13,0v.16h-.12s0,.05,0,.12h0a.13.13,0,0,0-.14,0l0,.12,0,0L104,50.8l-.07.1h0l-.08-.09-.11.06,0,0a.12.12,0,0,0-.06-.12l-.12,0,0,0a.13.13,0,0,0,0-.14h-.11l0,0a.14.14,0,0,0,0-.14l-.1,0,0,0h0c.07,0,.07-.15,0-.14h0v-.57h0c.09,0,.09-.12,0-.15h0l0,0,.1,0a.14.14,0,0,0,0-.14l0,0h.11a.12.12,0,0,0,0-.13l0,0,.12,0s.06-.06.06-.13l0,0,.11.06.08-.09h0l.07.1.12-.06,0,0,0,.12s.08,0,.14,0h0c0,.07,0,.09,0,.13h.12v.16a.14.14,0,0,0,.13,0v0l-.07.1S104.65,49.63,104.71,49.65Z"/><path d="M104.71,49.65h0v.54h0c-.07,0-.1.05-.11.09h0l.06.11v0h0l-.08,0h0v.16h-.13l0,.06,0,.07h0l-.09,0h-.05l0,.12h0L104,50.8h0l-.07.1h0l-.07-.09h0l-.11.06,0,0h0a.14.14,0,0,0-.06-.13h0l-.12,0,0,0h0v-.06l0-.08h-.11l0,0h0l0-.09v-.06h0l-.1,0v0h0l.06-.08-.07-.07h0v-.57h0l.07-.07-.06-.08h0v0l.1,0h0v0l0-.09h0l0,0h.11l0-.08V49.1h0l0,0,.12,0h0s.06-.06.06-.13h0l0,0,.11.05h0l.08-.09h0L104,49h0l.12-.07,0,0,0,.12h.05l.09,0h0l0,.07,0,.06h.13v.15h0l.08,0h0v0l-.06.1h0s0,.08.11.09h0a.13.13,0,0,1-.1-.09h0l.06-.11h0v0h0l-.07,0h0v-.12h0v0h-.13l0,0,0-.07h0l-.09,0h0l0-.12h0l0,0h0L104,49l-.07-.09h0l-.07.08-.11-.05h0l0,0h0c0,.07,0,.11-.05.12h0l-.11,0h0l0,0h0v.06l0,.07h-.12l0,0h0l0,.09v0h0l-.1,0h0l0,0h0l0,.07-.06.06h0v.59h0l.06.06,0,.08h0v0h0l.1,0h0v.05l0,.08h0l0,0h.12l0,.08v.06h0l0,0h0l.12,0h0a.14.14,0,0,1,.05.12h0l.06,0h0l.11-.06.07.08h0l.07-.1.12.06h0l0,0h0l0-.12h0l.09,0h0l0-.07,0-.05h.12l0,0h0v-.13h0l.07,0h0v0h0l-.06-.11h0a.11.11,0,0,1,.1-.08h0v-.55Z"/><path class="cls-3" d="M96.41,49.61v.54a.13.13,0,0,0-.1.09l.06.11v0a.1.1,0,0,0-.12,0v.16H96.1s0,.05,0,.12h0a.11.11,0,0,0-.13,0l0,.12,0,0-.12-.07-.07.1h0l-.07-.09-.11.06-.06,0a.12.12,0,0,0-.06-.12l-.11,0,0,0c0-.06,0-.11,0-.14h-.11l0,0a.12.12,0,0,0,0-.14l-.11,0v0h0c.07,0,.06-.15,0-.14h0V49.6h0c.09,0,.1-.12,0-.15h0v0l.11,0a.13.13,0,0,0,0-.14l0,0h.11s0-.07,0-.13l0,0,.11,0s.06-.06.06-.13l.06,0,.11.06.07-.09h0l.07.1.12-.06,0,0,0,.12a.13.13,0,0,0,.13,0h0c0,.07,0,.09,0,.13h.13v.17a.12.12,0,0,0,.12,0v0l-.06.1S96.35,49.59,96.41,49.61Z"/><path d="M96.41,49.61h0v.54h0c-.06,0-.1.05-.11.09h0l.07.11v0h0l-.08,0h0v.16H96.1l0,.06v.07h0l-.09,0h0l0,.12h0l-.12-.06h0l-.07.1h0l-.07-.09h0l-.11.06-.06,0h0a.14.14,0,0,0-.06-.13h0l-.11,0,0,0h0v-.06l0-.08h-.12l0,0h0l0-.09,0-.06h0l-.1,0,0,0h0l0-.08-.07-.08h0V49.6h0l.07-.07,0-.08h0l0,0,.1,0h0l0,0,0-.09h0l0,0h.12l0-.08v-.06h0l0,0,.11,0h0s.06-.06.06-.13h0l.06,0,.1.05h0l.07-.09h0l.07.09h0l.13-.07,0,0,0,.12h0l.09,0h0v.07l0,.06h.12v.16h0l.08,0h0v0l-.07.1h0s0,.08.11.1h0a.13.13,0,0,1-.1-.09h0l.07-.11h0v0h-.06l-.07,0h0v-.13h0v0H96.1l0,0,0-.07h0l-.09,0,0,0h0l0-.13h0l0,0h0l-.12.07-.07-.1h0l-.07.08-.11,0h0l-.06,0h0q0,.11-.06.12h0l-.11,0h0l0,0h0v.06l0,.07h-.11l0,0h0l0,.09,0,0h0l-.1,0h0l0,0h0l0,.07-.06.06h0v.59h0l.06.07,0,.07h0l0,0h0l.1,0h0l0,.05,0,.08h0l0,0h.11l0,.08v.06h0l0,0h0l.11,0h0a.12.12,0,0,1,.06.12h0l0,0h0l.11-.06.07.08h0l.07-.1.12.06h0l0,0h0l0-.12h0l.09,0h0l0-.07,0-.05h.13v0h0v-.13h0l.07,0h.06v0h0l-.07-.11h0a.11.11,0,0,1,.1-.08h0v-.55h0Z"/><path class="cls-3" d="M88.53,49.71v.54c-.06,0-.1,0-.1.09l.06.11v0a.12.12,0,0,0-.12,0v.12l0,0h-.12s0,0,0,.12h0a.12.12,0,0,0-.14,0l0,.12h0l-.13-.06-.07.1h0l-.07-.09-.12.06,0,0c0-.07,0-.11-.06-.13l-.11,0,0,0a.13.13,0,0,0,0-.14h-.11l0,0a.12.12,0,0,0,0-.14l-.1,0v0h0a.08.08,0,0,0,0-.15h0v-.58h0a.08.08,0,0,0,0-.15h0v0l.1,0a.12.12,0,0,0,0-.14l0,0h.11a.13.13,0,0,0,0-.14l0,0,.11,0s.06-.06.06-.12l0,0,.12.06.07-.09h0l.07.1L88,49h0l0,.12a.11.11,0,0,0,.14,0h0c0,.07,0,.08,0,.12h.12l0,0v.12a.1.1,0,0,0,.12,0v0l-.06.11S88.47,49.69,88.53,49.71Z"/><path d="M88.53,49.71h0v.54h0a.12.12,0,0,0-.11.09h0l.07.11v0h0l-.08,0h0v.16h-.12l0,.06,0,.07h0l-.09,0h0l0,.12,0,0-.12-.06h0l-.07.1h0l-.07-.08h0l-.12.05h0a.13.13,0,0,0-.07-.13h0l-.11,0,0,0h0v-.07l0-.07h-.12l0,0h0l0-.09v0h0l-.11,0v0h0l0-.08L87,50.27h0v-.58h0l.07-.07,0-.08h0v0l.11,0h0v0l0-.09h0l0,0h.12l0-.07v-.07h0l0,0,.11,0h0a.13.13,0,0,0,.07-.13h0l0,0,.11.06h0l.07-.08h0l.07.1h0L88,49l0,0,0,.11h0l.09,0h0l0,.07,0,.06h.12v.15h0l.08,0h0v0l-.07.11h0a.12.12,0,0,0,.11.09h0a.11.11,0,0,1-.1-.08h0l.06-.1h0v0h-.06l-.07,0h0v-.12h0v0h-.13l0-.05,0-.07h0l-.09,0h0l0-.12h0l0,0h0l-.12.06L87.78,49h0l-.08.08-.1,0h0l0,0h0a.12.12,0,0,1-.06.12h0l-.11,0h0l0,0h0v.07l0,.07h-.11l0,0h0l0,.09v0h0l-.1,0h0l0,0h0l0,.07-.06.06h0v.58h0l.06.06,0,.07h0l0,0h0l.1,0h0v0l0,.09h0l0,0h.12l0,.07v.06h0l0,0h0l.11,0h0a.12.12,0,0,1,.06.12h0l0,0h0l.11,0,.08.08h0l.07-.09.12.06h0l0,0h0l0-.12h0l.09,0h0l0-.07,0,0h.13v0h0v-.12h0l.07,0h.06v0h0l-.07-.1h0a.11.11,0,0,1,.1-.08h0v-.54h0Z"/><path class="cls-3" d="M80.41,49.63v.54a.13.13,0,0,0-.1.09l.06.11v0a.1.1,0,0,0-.12,0v.16H80.1s0,0,0,.12h0a.11.11,0,0,0-.14,0l0,.12h0l-.13-.06-.07.1h0l-.07-.09-.12.06,0,0a.14.14,0,0,0-.06-.13l-.11,0,0,0c0-.07,0-.11,0-.14h-.11l0,0a.15.15,0,0,0,0-.14l-.11,0v0h0a.08.08,0,0,0,0-.15h0v-.58h0a.08.08,0,0,0,0-.15h0v0l.11,0a.15.15,0,0,0,0-.14l0,0h.11s0-.07,0-.14l0,0,.11,0s.06-.06.06-.13l0,0,.12.06.07-.09h0l.07.1.13-.06h0l0,.12a.12.12,0,0,0,.14,0h0c0,.07,0,.09,0,.12h.13v.16a.12.12,0,0,0,.12,0v0l-.06.11A.13.13,0,0,0,80.41,49.63Z"/><path d="M80.41,49.63h0v.54h0a.12.12,0,0,0-.11.09h0l.07.11v0h0l-.08,0h0v.15H80.1l0,.06,0,.07h0l-.09,0h0l0,.12,0,0-.12-.06h0l-.07.1h0l-.07-.08h0l-.12.05h0c0-.07,0-.11-.07-.13h0l-.11,0,0,0h0v-.07l0-.07h-.12l0,0h0l0-.09v-.05h0l-.1,0,0,0h0l0-.08-.07-.07h0v-.58h0l.07-.07,0-.08h0l0,0,.1,0h0v0l0-.09h0l0,0h.12l0-.07v-.07h0l0,0,.11,0h0s.07-.06.07-.13h0l.11,0h0l.07-.08h0l.07.1h0l.13-.06,0,0,0,.12h0l.09,0h0l0,.07,0,.06h.12v.15h0l.08,0h0v0l-.07.11h0a.12.12,0,0,0,.11.09h0a.11.11,0,0,1-.1-.08h0l.07-.1h0v0h-.06l-.07,0h0v-.12h0v0H80.1l0-.05,0-.07h0l-.09,0h0l0-.12h0l0,0h0l-.12.06-.07-.09h0l-.07.08-.11,0h0l-.06,0h0a.12.12,0,0,1-.06.12h0l-.11,0h0l0,0h0v.06l0,.07h-.11l0,0h0l0,.09,0,0h0l-.1,0h0l0,0h0l0,.07-.06.06h0v.58h0l.06.06,0,.07h0l0,0h0l.1,0h0l0,0,0,.09h0l0,0h.11l0,.07v.06h0l0,0h0l.11,0h0a.12.12,0,0,1,.06.12h0l0,0h0l.11-.05.07.08h0l.07-.1.12.06h0l0,0h0l0-.12h0l.09,0h0l0-.07,0,0h.13v0h0v-.12h0l.07,0h.06v0h0l-.07-.11h0a.11.11,0,0,1,.1-.08h0v-.55h0Z"/><path class="cls-3" d="M72.59,49.71v.54a.13.13,0,0,0-.1.09l.06.11v0a.12.12,0,0,0-.12,0v.16h-.13s0,0,0,.12h0a.12.12,0,0,0-.14,0l0,.12h0l-.13-.06-.07.1h0l-.07-.09-.11.06-.06,0c0-.07,0-.11-.06-.13l-.11,0,0,0c0-.07,0-.11,0-.14h-.11l0,0a.15.15,0,0,0,0-.14l-.11,0v0h0a.08.08,0,0,0,0-.15h0v-.58h0a.08.08,0,0,0,0-.15h0v0l.11,0a.15.15,0,0,0,0-.14l0,0h.11s0-.07,0-.14l0,0,.11,0s.06-.06.06-.12l.06,0,.11.06.07-.09h0l.07.1L72,49h0l0,.12a.11.11,0,0,0,.14,0h0c0,.07,0,.08,0,.12h.13v.16a.1.1,0,0,0,.12,0v0l-.06.11A.13.13,0,0,0,72.59,49.71Z"/><path d="M72.59,49.71h0v.54h0a.12.12,0,0,0-.11.09h0l.07.11v0h-.05l-.08,0h0v.15h-.12l0,.06,0,.07h0l-.09,0h0l0,.12,0,0-.12-.06h0l-.07.1h0l-.07-.08h0l-.12.05h0c0-.07,0-.11-.07-.13h0l-.11,0,0,0h0v-.07l0-.07h-.12l0,0h0l0-.09v0h0l-.1,0,0,0h0l0-.08-.07-.07h0v-.58h0l.07-.07,0-.08h0l0,0,.1,0h0v0l0-.09h0l0,0h.12l0-.07v-.07h0l0,0,.11,0h0s.07-.06.07-.13h0l.05,0,.11.06h0l.07-.08h0l.07.1h0L72,49l0,0,0,.11h0l.09,0h0l0,.07,0,.06h.12v.15h0l.08,0h.05v0l-.07.11h0a.12.12,0,0,0,.11.09h0a.11.11,0,0,1-.1-.08h0l.07-.1h0v0h-.06l-.07,0h0v-.12h0v0h-.13l0-.05,0-.07h0l-.09,0h0l0-.12h0l0,0h0l-.12.06L71.84,49h0l-.07.08-.11,0h0l-.06,0h0a.12.12,0,0,1-.06.12h0l-.11,0h0l0,0h0v.07l0,.07h-.11l0,0h0l0,.09,0,0h0l-.1,0h0l0,0h0l.05.07-.06.06h0v.58h0l.06.06-.05.07h0l0,0h0l.1,0h0l0,0,0,.09h0l0,0h.11l0,.07v.06h0l0,0h0l.11,0h0a.12.12,0,0,1,.06.12h0l.05,0h0l.11,0,.07.08h0l.07-.09.12.06h0l0,0h0l0-.12h0l.09,0h0l0-.07,0,0h.13v0h0v-.12h0l.07,0h.06v0h0l-.07-.1h0a.11.11,0,0,1,.1-.08h0v-.54h0Z"/><path class="cls-3" d="M64.87,49.67v.54c-.06,0-.1,0-.11.09l.07.11v0a.14.14,0,0,0-.13,0v.12l0,0h-.12s0,0,0,.12h0c-.06,0-.1,0-.14,0l0,.12h0l-.13-.06-.07.1h0L64,50.83l-.11.06,0,0c0-.07,0-.11-.06-.13l-.11,0,0,0a.13.13,0,0,0,0-.14h-.11l0,0a.12.12,0,0,0,0-.14l-.1,0,0,0h0a.08.08,0,0,0,0-.15h0v-.58h0a.08.08,0,0,0,0-.15h0l0,0,.1,0a.12.12,0,0,0,0-.14l0,0h.11a.13.13,0,0,0,0-.14l0,0,.11,0a.14.14,0,0,0,.06-.13l0,0,.11.06.08-.09h0l.07.1.13-.06h0l0,.12s.08,0,.14,0h0c0,.07,0,.09,0,.12h.12l0,0v.12a.14.14,0,0,0,.13,0v0l-.07.11S64.81,49.65,64.87,49.67Z"/><path d="M64.87,49.67h0v.54h0a.12.12,0,0,0-.11.09h0l.06.11v0h0l-.08,0h0v.15h-.13l0,.06,0,.07h0l-.09,0h0l0,.12,0,0-.13-.06h0l-.07.1h0L64,50.83h0l-.11.05h0c0-.07,0-.11-.06-.13h0l-.11,0,0,0h0l0-.07,0-.07h-.11l0,0h0l0-.09v0h0l-.11,0v0h0l.06-.08-.07-.07h0v-.58h0l.07-.07-.06-.08h0v0l.1,0h0v0l0-.09h0l0,0h.11l0-.07,0-.07h0l0,0,.11,0h0s.06-.06.06-.13h0l.11,0h0l.08-.08h0l.07.1h0l.13-.06,0,0,0,.12h0l.09,0h0l0,.07,0,.06h.13v.15h0l.08,0h0v0l-.06.11h0a.12.12,0,0,0,.11.09h0a.11.11,0,0,1-.1-.08h0l.06-.1h0v0h-.06l-.07,0h0v-.12h0v0h-.13l0-.05,0-.07h0l-.09,0h0l0-.12h0l0,0h0l-.13.06L64.12,49h0L64,49l-.11,0h0l0,0h0a.14.14,0,0,1-.05.12h0l-.11,0h0l0,0h0v.06l0,.07H63.5l0,0h0l0,.09v0h0l-.1,0h0l0,0h0l0,.07-.06.06h0v.58h0l.06.06,0,.07h0l0,0h0l.1,0h0v0l0,.09h0l0,0h.12l0,.07v.06h0l0,0h0l.12,0h0a.14.14,0,0,1,.05.12h0l.06,0h0l.11,0,.07.08h0l.07-.1.12.06h0l0,0h0l0-.12h0l.09,0h0l0-.07,0,0h.13v0h0v-.12h0l.07,0h0v0h0l-.06-.1h0a.11.11,0,0,1,.1-.08h0v-.54h0Z"/><path class="cls-3" d="M64.78,16.79v.54c-.07,0-.1.05-.11.09l.06.11v0a.12.12,0,0,0-.13,0v.16h-.13s0,0,0,.12h0a.11.11,0,0,0-.13,0l0,.12,0,0-.12-.07L64,18h0L63.92,18l-.11.06-.06,0c0-.06,0-.11,0-.12l-.12,0,0,0a.16.16,0,0,0,0-.14h-.12l0,0a.12.12,0,0,0,0-.14l-.1,0,0,0h0c.07,0,.07-.15,0-.14h0v-.57h0c.09,0,.09-.12,0-.15h0l0,0,.1,0a.13.13,0,0,0,0-.14l0,0h.12s0-.07,0-.13l0,0,.12,0a.14.14,0,0,0,0-.13l.06,0,.11.06.07-.09h0l.07.1.12-.06,0,0,0,.12a.13.13,0,0,0,.13,0h0c0,.07,0,.09,0,.13h.13v.16a.14.14,0,0,0,.13,0v0l-.06.1S64.71,16.77,64.78,16.79Z"/><path d="M64.78,16.79h0v.54h0a.11.11,0,0,0-.1.09h0l.07.11v0h0l-.08,0h0v.15h-.13l0,.06v.07h0l-.1,0h0l0,.12,0,0-.12-.06h0L64,18h0L63.92,18h0l-.11.06-.05,0h0a.14.14,0,0,0-.06-.13h0l-.12,0,0,0h0v-.06l0-.08h-.12v0h0l0-.1,0-.05h0l-.1,0,0,0h0l.05-.08-.07-.07h0v-.57h0l.07-.07-.05-.08h0l0,0,.1,0h0l0-.05,0-.09h0v0h.12l0-.08v-.07h0l0,0,.11,0h0s.06-.06.06-.13h0l.05,0,.11.05h0l.07-.08h0l.06.09h0l.12-.07,0,0,0,.12h0l.1,0h0v.07l0,.06h.13v.15h0l.08,0h0v0l-.06.11h0c0,.05,0,.08.1.09h0c-.07,0-.1-.05-.11-.09h0l.07-.1h0v0h0l-.08,0h0v-.12h0l0,0h-.12l0-.05v-.07h0l-.09,0h0l0-.12h0l0,0h0l-.12.06L64,16.08h0l-.07.08-.11-.05h0l-.06,0h0q0,.11-.06.12h0l-.12,0h0l0,0h0v.06l0,.07h-.11l0,0h0l0,.09,0,.05h0l-.11,0h0v0h0l0,.07-.06.06h0v.59h0l.06.06,0,.08h0v0h0l.11,0h0l0,0,0,.09h0l0,0h.11l0,.08v.06h0l0,0h0l.12,0h0a.12.12,0,0,1,.06.12h0l.06,0h0l.11-.06L64,18h0l.07-.1.12.06h0l0,0h0l0-.12h0l.09,0h0v-.07l0,0h.12l0,0h0v-.12h0l.08,0h0v0h0l-.07-.11h0s0-.07.11-.08h0v-.55Z"/><path class="cls-3" d="M72.6,17.07v.54a.13.13,0,0,0-.1.09l.06.11v0a.1.1,0,0,0-.12,0V18h-.13s0,.05,0,.12h0a.12.12,0,0,0-.14,0l0,.12,0,0-.13-.07-.07.1h0l-.07-.08-.12.05,0,0a.12.12,0,0,0-.06-.12l-.11,0,0,0c0-.06,0-.11,0-.14h-.11l0,0a.13.13,0,0,0,0-.13l-.11,0v0h0c.07,0,.06-.15,0-.14h0v-.57h0c.09,0,.1-.12,0-.15h0v0l.11,0s0-.08,0-.14l0,0h.11s0-.07,0-.13l0,0,.11,0s.06-.06.06-.13l0,0,.12.06.07-.09h0l.07.1L72,16.4l0,0,0,.12a.15.15,0,0,0,.14,0h0c0,.07,0,.09,0,.13h.13v.16s.07,0,.12,0v0l-.06.1A.11.11,0,0,0,72.6,17.07Z"/><path d="M72.6,17.07h0v.54h0c-.06,0-.1.05-.11.09h0l.07.11v0h0l-.08,0h0V18h-.12l0,.06,0,.06h0l-.09,0-.05,0h0l0,.12h0l-.12-.06h0l-.07.1h0l-.07-.09h0l-.12.06,0,0h0a.13.13,0,0,0-.07-.13h0l-.11,0,0,0h0V18.1l0-.08h-.12l0,0h0l0-.09v-.06h0l-.1,0,0,0h0l0-.08-.07-.08h0v-.57h0l.07-.07,0-.08h0l0,0,.1,0h0v0l0-.09h0l0,0h.12l0-.08v-.06h0l0,0,.11,0h0s.07-.06.07-.13h0l0,0,.11.05h0l.07-.09h0l.07.09h0L72,16.4l0,0,0,.12h.05l.09,0h0l0,.07,0,.06h.12v.16h0l.08,0h0v0l-.07.1h0c0,.05.05.08.11.1h0a.13.13,0,0,1-.1-.09h0l.07-.11h0v0H72.5l-.07,0h0v-.13h0v0h-.13l0-.05,0-.07h0l-.09,0,0,0h0l0-.12h0l-.12.07-.07-.1h0l-.08.09-.1-.06h0l-.06,0h0q0,.11-.06.12h0l-.11,0h0l0,0h0v.06l0,.07h-.11l0,0h0l0,.09,0,0h0l-.1,0h0l0,0h0l0,.07-.06.07h0v.59h0l.06.07,0,.07h0l0,0h0l.1,0h0l0,.05,0,.08h0l0,0h.11l0,.07v.06h0l0,0h0l.11,0h0a.12.12,0,0,1,.06.12h0l0,0h0l.1-.06.08.08h0l.07-.1.12.06h0l0,0h0l0-.12h0l.09,0h0l0-.06,0-.06h.13v0h0v-.13h0l.07,0h.06v0h0l-.07-.11h0a.11.11,0,0,1,.1-.08h0v-.55h0Z"/><path class="cls-3" d="M80.26,17v.54a.12.12,0,0,0-.11.09l.07.1v0c-.06,0-.1,0-.12,0v.13l0,0H80s0,.06,0,.13h0a.15.15,0,0,0-.14,0l0,.12,0,0-.13-.06-.07.1h0l-.08-.09-.11.06-.05,0c0-.07,0-.11-.06-.13l-.11,0,0,0A.12.12,0,0,0,79,18H78.9l0,0c0-.06,0-.1,0-.14l-.1,0,0,0h0c.08,0,.07-.16,0-.15h0V17h0c.09,0,.1-.12,0-.14h0l0,0,.1,0s0-.08,0-.13l0,0H79a.13.13,0,0,0,0-.14l0,0,.11,0a.12.12,0,0,0,.06-.12l.05,0,.11.05.08-.08h0l.07.1.13-.07,0,0,0,.12a.12.12,0,0,0,.14,0h0c0,.07,0,.08,0,.12h.12l0,0v.13s.06,0,.12,0v0l-.07.11S80.2,17,80.26,17Z"/><path d="M80.26,17h0v.54h0c-.06,0-.1.05-.11.09h0l.06.1v0h0l-.08,0h0V18h-.13l0,.06,0,.07h0l-.09,0h0l0,.12,0,0-.13-.07h0l-.07.1h0l-.07-.08h0l-.11.06-.05,0h0c0-.07,0-.11-.06-.13h0l-.11,0,0,0h0V18L79,18H78.9l0,0h0l0-.09V17.8h0l-.11,0v0h0l.06-.08-.07-.07h0V17h0l.07-.08-.06-.08h0v0l.1,0h0v-.06l0-.09h0l0,0H79l0-.08v-.06h0l0,0,.11,0h0a.14.14,0,0,0,.06-.13h0l.05,0,.11.06h0l.08-.09h0l.07.1h0l.13-.06h0l0,.12h0l0,0,.09,0h0l0,.06,0,.06h.13v.16h0l.08,0h0v0l-.06.11h0s0,.07.11.09h0c-.06,0-.09,0-.1-.08h0l.06-.11h0v0h-.06l-.07,0h0v-.13h0v0H80l0-.06,0-.06h0l-.09,0h0l0-.12h0l0,0h0l-.13.06-.06-.1h0l-.07.09-.11-.06h0l-.05,0h0c0,.06,0,.1,0,.12h0l-.11,0h0l0,0h0v.06l0,.07h-.12l0,0h0l0,.08v.05h0l-.1,0h0l0,0h0l0,.07-.06.07h0v.57h0l.06.07,0,.07h0l0,0h0l.1,0h0v.05l0,.09h0l0,0H79L79,18v.06h0l0,0h0l.12,0h0s0,0,0,.12h0l.06,0h0l.11-.06.07.09h0l.07-.1.12.06h0l0,0h0l0-.13h0l0,0,.09,0h0l0-.07L80,18h.13v0h0v-.13h0l.07,0h.06v-.05h0l-.06-.11h0a.13.13,0,0,1,.1-.09h0V17h0Z"/><path class="cls-3" d="M88.48,16.9v.55c-.06,0-.1,0-.1.08l.06.11v0a.1.1,0,0,0-.12,0v.13l0,0h-.12s0,.05,0,.12h0A.12.12,0,0,0,88,18l0,.12,0,0-.13-.06-.07.09h0l-.08-.08-.11.05-.05,0A.12.12,0,0,0,87.4,18l-.11,0,0,0a.13.13,0,0,0,0-.14h-.11l0,0c0-.06,0-.11,0-.14l-.1,0v0h0c.08,0,.07-.15,0-.14h0v-.57h0c.09,0,.1-.12,0-.14h0v0l.1,0s0-.08,0-.14l0,0h.11a.13.13,0,0,0,0-.14l0,0,.11,0s.06-.06.06-.13l.05,0,.11.06.08-.08h0l.07.1.13-.06,0,0,0,.12a.15.15,0,0,0,.14,0h0c0,.07,0,.09,0,.13h.12l0,0v.13s.07,0,.12,0v0l-.06.11S88.42,16.89,88.48,16.9Z"/><path d="M88.48,16.9h0v.55h0c-.06,0-.1,0-.11.09h0l.07.11v0h-.05l-.08,0h0v.16h-.13l0,.06,0,.07h0L88,18l0,0h0l0,.12h0l-.12-.06h0l-.07.1h0l-.07-.09h0l-.12.06-.05,0h0A.14.14,0,0,0,87.4,18h0l-.11,0,0,0h0v-.06l0-.08h-.12l0,0h0l0-.09v-.06h0l-.11,0v0h0l0-.08L87,17.46h0v-.57h0l.07-.08,0-.08h0v0l.11,0h0v-.05l0-.09h0l0,0h.12l0-.08v-.06h0l0,0,.11,0h0s.06-.06.06-.13h0l.05,0,.11.06h0l.07-.09h0l.07.1h0l.13-.06h0l0,.12h0l0,0,.09,0h0l0,.07,0,.06h.13v.16h0l.08,0h.05v0l-.07.1h0s0,.07.11.09h0a.13.13,0,0,1-.1-.09h0l.06-.11h0v0h-.06l-.07,0h0v-.13h0v0h-.13l0-.06,0-.06h0l-.09,0,0,0h0l0-.12h0l-.13.06-.06-.1h0l-.08.09-.1-.06h0l-.05,0h0c0,.07,0,.11-.06.13h0l-.11,0h0l0,0h0v.06l0,.07h-.11l0,0h0l0,.08v.05h0l-.1,0h0l0,0h0l.05.07-.06.07h0v.57h0l.06.07-.05.07h0l0,0h0l.1,0h0v0l0,.08h0l0,0h.12l0,.07V18h0l0,0h0l.11,0h0a.12.12,0,0,1,.06.12h0l.05,0h0l.11-.06.07.09h0l.06-.1.12.06h0l0,0h0L88,18h0l.09,0h0l0-.06,0-.06h.13v0h0V17.7h0l.07,0h.06v0h0l-.06-.11h0s0-.06.1-.08h0V16.9h0Z"/><path class="cls-3" d="M96.42,16.85v.54c-.06,0-.1,0-.11.09l.07.1v0a.12.12,0,0,0-.12,0v.12l0,0h-.12s0,.06,0,.13h0a.15.15,0,0,0-.14,0l0,.12,0,0L95.73,18l-.07.1h0L95.56,18l-.11.06,0,0c0-.07,0-.11-.06-.13l-.11,0,0,0a.12.12,0,0,0,0-.13h-.11l0,0c0-.06,0-.1,0-.14l-.1,0v0h0c.08,0,.07-.16,0-.15h0v-.57h0c.09,0,.1-.12,0-.14h0v0l.1,0a.12.12,0,0,0,0-.14l0,0h.11a.13.13,0,0,0,0-.14l0,0,.11,0a.12.12,0,0,0,.06-.12l0,0,.11.06.08-.09h0l.07.1.13-.07,0,0,0,.12a.12.12,0,0,0,.14,0h0c0,.07,0,.08,0,.12h.12l0,0v.12a.1.1,0,0,0,.12,0v0l-.07.11S96.36,16.83,96.42,16.85Z"/><path d="M96.42,16.85h0v.54h0a.12.12,0,0,0-.11.09h0l.06.1v0h-.05l-.08,0h0v.16H96.1l0,.06,0,.07h0l-.09,0h0l0,.12,0,0L95.73,18h0l-.07.1h0L95.57,18h0l-.12.06,0,0h0c0-.07,0-.11-.06-.13h0l-.11,0,0,0h0v-.07l0-.08h-.11l0,0h0l0-.09v-.05h0l-.11,0v0h0l0-.08-.07-.07h0v-.57h0l.07-.08,0-.07h0v0l.11,0h0v-.06l0-.09h0l0,0h.11l0-.08V16.3h0l0,0,.11,0h0a.14.14,0,0,0,.06-.13h0l0,0,.11.06h0l.07-.09h0l.07.1h0l.13-.06h0l0,.12h0l.09,0h0l0,.07,0,.06h.13v.16h0l.08,0h.05v0l-.06.11h0s0,.07.11.09h0a.11.11,0,0,1-.1-.08h0l.06-.11h0v0h-.06l-.07,0h0v-.12h0v0h-.13l0-.05,0-.07h0l-.09,0h0l0-.12h0l0,0h0l-.13.06-.06-.1h0l-.08.08-.1-.06h0l0,0h0c0,.06,0,.1-.06.12h0l-.11,0h0l0,0h0v.06l0,.08h-.12v0h0l0,.08v.05h0l-.1,0h0l0,0h0l0,.07-.06.07h0v.57h0l.06.06,0,.07h0l0,0h0l.1,0h0v.05l0,.09h0l0,0h.12l0,.07v.06h0l0,0h0l.11,0h0s0,.05.06.12h0l0,0h0l.11-.05.07.08h0l.07-.1.12.07h0l0,0h0l0-.13h0l.09,0h0l0-.07,0-.05h.13v0h0v-.12h0l.07,0h.06v-.05h0l-.06-.11h0a.13.13,0,0,1,.1-.09h0v-.54h0Z"/><path class="cls-3" d="M104.59,16.79v.54c-.07,0-.1.05-.11.09l.06.11v0a.12.12,0,0,0-.13,0v.16h-.13s0,0,0,.12h0a.11.11,0,0,0-.13,0l0,.12,0,0-.12-.07-.07.1h0l-.07-.09-.11.06-.06,0c0-.06,0-.11,0-.12l-.12,0,0,0a.16.16,0,0,0,0-.14h-.12l0,0a.12.12,0,0,0,0-.14l-.1,0,0,0h0c.07,0,.07-.15,0-.14h0v-.57h0c.1,0,.1-.12,0-.15h0l0,0,.1,0a.13.13,0,0,0,0-.14l0,0h.12s0-.07,0-.13l0,0,.12,0a.14.14,0,0,0,0-.13l.06,0,.11.06.07-.09h0l.07.1.12-.06,0,0,0,.12a.13.13,0,0,0,.13,0h0c0,.07,0,.09,0,.13h.13v.16a.14.14,0,0,0,.13,0v0l-.06.1S104.52,16.77,104.59,16.79Z"/><path d="M104.59,16.79h0v.54h0a.11.11,0,0,0-.1.09h0l.07.11v0h0l-.07,0h0v.12l0,0h-.12l0,.06v.07h0l-.1,0h0l0,.12,0,0-.12-.06h0l-.07.1h0l-.07-.09h0l-.11.06-.05,0h0a.14.14,0,0,0-.06-.13h0l-.12,0,0,0h0v-.06l0-.08h-.12v0h0l0-.1,0-.05h0l-.1,0,0,0h0l.05-.08-.07-.07h0v-.57h0l.07-.07-.05-.08h0l0,0,.1,0h0l0-.05,0-.09h0v0h.12l0-.08v-.07h0l0,0,.11,0h0s.06-.06.06-.13h0l.05,0,.11.05h0l.07-.08h0l.06.09h0l.12-.07,0,0,0,.12h0l.1,0h0v.07l0,.06h.12l0,0v.12h0l.07,0h0v0l-.06.11h0c0,.05,0,.08.1.09h0c-.07,0-.1-.05-.11-.09h0l.07-.1h0v0h-.06l-.07,0h0v-.12h0l0,0h-.12l0-.05v-.07h0l-.09,0h0l0-.12h0l0,0h0l-.12.06-.07-.09h0l-.07.08-.11-.05h0l-.06,0h0q0,.11-.06.12h0l-.12,0h0l0,0h0v.06l0,.07h-.11l0,0h0l0,.09,0,.05h0l-.11,0h0v0h0l0,.07-.06.06h0v.59h0l.06.06,0,.08h0v0h0l.11,0h0l0,0,0,.09h0l0,0h.11l0,.08v.06h0l0,0h0l.12,0h0a.12.12,0,0,1,.06.12h0l.06,0h0l.11-.06.07.08h0l.07-.1L104,18h0l0,0h0l0-.12h0l.09,0h0v-.07l0,0h.12l0,0h0v-.12h0l.07,0h.06v0h0l-.07-.11h0s0-.07.11-.08h0v-.55Z"/><path class="cls-3" d="M112.69,16.68v.54a.13.13,0,0,0-.1.09l.06.1v0a.14.14,0,0,0-.13,0v.16h-.13s0,.06,0,.13h0a.13.13,0,0,0-.13,0l0,.13h0l-.12-.06-.07.1h0l-.07-.09-.11.06-.06,0c0-.07,0-.11-.06-.13l-.11,0,0,0c0-.07,0-.11,0-.14h-.11l0,0a.12.12,0,0,0,0-.14l-.11,0v0h0c.07,0,.06-.16,0-.15h0v-.58h0a.08.08,0,0,0,0-.15h0v0l.11,0a.12.12,0,0,0,0-.14l0,0h.11s0-.08,0-.14l0,0,.11,0s.06-.06.06-.12l.06,0,.11.06.07-.09h0l.07.1.12-.06h0l0,.12s.08,0,.13,0h0c0,.07,0,.08,0,.12h.13v.16a.12.12,0,0,0,.13,0v0l-.06.11A.13.13,0,0,0,112.69,16.68Z"/><path d="M112.69,16.68h0v.54h0a.12.12,0,0,0-.11.09h0l.07.11v0h0l-.07,0h0v.16h-.12l0,.06v.07h0l-.1,0h0l0,.12,0,0-.12-.06h0l-.07.11h0l-.07-.08h0l-.11.05-.06,0h0c0-.07,0-.11-.06-.13h0l-.11,0,0,0h0V17.7l0-.08h-.12l0,0h0l0-.09,0-.05h0l-.1,0,0,0h0l.05-.08-.07-.07h0v-.58h0l.07-.07-.05-.08h0l0,0,.1,0h0l0-.05,0-.09h0l0,0h.12l0-.07v-.07h0l0,0,.11,0h0a.14.14,0,0,0,.06-.13h0l.06,0,.11.06h0l.07-.09h0l.07.1h0l.13-.06,0,0,0,.11h0l.1,0h0v.07l0,.06h.12v.15h0l.07,0h0v0l-.07.11h0a.12.12,0,0,0,.11.09h0a.11.11,0,0,1-.1-.08h0l.07-.1h0v0h-.06l-.07,0h0V16.3h0v0h-.13l0-.05,0-.07h0l-.09,0h0l0-.12h0l0,0h0l-.12.06-.07-.09h0l-.07.08-.11-.05h0l-.06,0h0a.12.12,0,0,1-.06.12h0l-.12,0h0l0,0h0v.07l0,.07h-.11l0,0h0l0,.09,0,0h0l-.11,0h0l0,0h0l0,.08-.06.06h0v.58h0l.06.06,0,.07h0l0,0h0l.11,0h0l0,.05,0,.09h0l0,0h.11l0,.07v.06h0l0,0h0l.12,0h0s.06,0,.06.12h0l0,0h0l.11,0,.07.08h0l.07-.09.12.06h0l0,0h0l0-.12h0l.09,0h0l0-.07,0-.05h.13v0h0v-.12h0l.07,0h.06v0h0l-.07-.1h0a.13.13,0,0,1,.1-.09h0v-.54h0Z"/><path class="cls-3" d="M120.69,16.73v.55a.12.12,0,0,0-.11.08l.07.11v0c-.06,0-.1,0-.13,0v.13l0,0h-.12s0,.06,0,.13h0c-.06,0-.1,0-.14,0l0,.12,0,0-.13-.06-.07.1h0l-.08-.08-.11.05h0c0-.07,0-.11-.06-.13l-.12,0,0,0a.13.13,0,0,0,0-.14h-.11l0,0c0-.06,0-.11,0-.14l-.1,0,0,0h0c.08,0,.07-.15,0-.14h0v-.57h0c.09,0,.1-.12,0-.14h0l0,0,.1,0s0-.08,0-.14l0,0h.11a.13.13,0,0,0,0-.14l0,0,.12,0a.12.12,0,0,0,.06-.12l0,0,.11.05.08-.08h0l.07.1.13-.06,0,0,0,.12a.13.13,0,0,0,.14,0h0c0,.06,0,.08,0,.12h.12l0,0v.13a.12.12,0,0,0,.13,0v0l-.07.11A.12.12,0,0,0,120.69,16.73Z"/><path d="M120.69,16.73h0v.55h0c-.06,0-.1.05-.11.09h0l.06.1v0h0l-.08,0h0v.16h-.13l0,.06,0,.07h0l-.09,0,0,0h0l0,.12h0l-.13-.06h0l-.07.1h0l-.07-.09h0l-.11.06,0,0h0c0-.07,0-.11-.06-.13h0l-.11,0,0,0h0l0-.06,0-.08h-.11l0,0h0l0-.09v-.05h0l-.11,0v0h0l.06-.08-.07-.08h0v-.57h0l.07-.08-.06-.08h0v0l.1,0h0v-.06l0-.09h0l0,0h.11l0-.08,0-.06h0l0,0,.11,0h0a.12.12,0,0,0,.06-.12h0l0,0,.11.06h0l.08-.09h0l.07.1h0l.13-.06h0l0,.12h0l0,0,.09,0h0l0,.07,0,.06h.13v.16h0l.08,0h0v0l-.06.1h0s0,.07.11.09h0c-.06,0-.09,0-.1-.08h0l.06-.11h0v0h-.06l-.07,0h0v-.13h0v0h-.13l0-.06,0-.06h0l-.09,0h0l0-.12h0l0,0h0l-.13.06-.06-.1h0l-.07.09-.11-.06h0l0,0h0a.14.14,0,0,1,0,.12h0l-.11,0h0l0,0h0v.06l0,.07h-.12l0,0h0l0,.08v0h0l-.1,0h0l0,0h0l0,.07-.06.07h0v.57h0l.06.07,0,.07h0l0,0h0l.1,0h0v.05l0,.08h0l0,0h.12l0,.07v.06h0l0,0h0l.12,0h0a.14.14,0,0,1,0,.13h0l.06,0h0l.11-.06.07.09h0l.07-.1.12.06h0l0-.12h0l.09,0h0l0-.06,0-.06h.13v0h0v-.13h0l.07,0h0v-.05h0l-.06-.11h0a.13.13,0,0,1,.1-.09h0v-.55Z"/><path class="cls-3" d="M128.8,16.9v.55a.12.12,0,0,0-.11.08l.07.11v0a.12.12,0,0,0-.13,0v.16h-.13s0,.05,0,.12h0a.13.13,0,0,0-.14,0l0,.12,0,0-.12-.06-.07.09h0l-.07-.08-.11.05,0,0a.12.12,0,0,0-.06-.12l-.12,0,0,0a.13.13,0,0,0,0-.14h-.12v0a.14.14,0,0,0,0-.14l-.1,0,0,0h0c.07,0,.07-.15,0-.14h0v-.57h0c.09,0,.09-.12,0-.14h0l0,0,.1,0a.14.14,0,0,0,0-.14v0h.12a.13.13,0,0,0,0-.14l0,0,.12,0s.06-.06.06-.13l0,0,.11.06.07-.08h0l.07.1.12-.06,0,0,0,.12s.08,0,.14,0h0c0,.07,0,.09,0,.13h.13v.16s.07,0,.13,0v0l-.07.11A.12.12,0,0,0,128.8,16.9Z"/><path d="M128.8,16.9h0v.55h0c-.07,0-.1,0-.11.09h0l.06.11v0h-.05l-.08,0h0v.16h-.13l0,.06,0,.07h0l-.09,0,0,0h0l0,.12h0l-.12-.06h0l-.07.1h0l-.08-.09h0l-.11.06,0,0h0a.14.14,0,0,0-.06-.13h0l-.12,0,0,0h0v-.06l0-.08h-.11l0,0h0l0-.09,0-.06h0l-.1,0v0h0l.06-.08-.07-.08h0v-.57h0l.07-.08-.06-.08h0v0l.1,0h0l0-.05,0-.09h0l0,0h.11l0-.08v-.06h0l0,0,.12,0h0s.06-.06.06-.13h0l0,0,.11.06h0l.08-.09h0l.07.1h0l.12-.06h0l0,.12h0l0,0,.09,0h0l0,.07,0,.06h.13v.16h0l.08,0h.05v0l-.06.1h0s0,.07.11.09h0c-.06,0-.1,0-.1-.09h0l.06-.11h0v0h-.05l-.07,0h0v-.13h0l0,0h-.12l0-.06v-.06h0l-.08,0,0,0h0l0-.12h0l-.12.06-.07-.1h0l-.07.09-.11-.06h0l0,0h0a.14.14,0,0,1,0,.13h0l-.12,0h0l0,0h0v.06l0,.07h-.12l0,0h0l0,.08v.05h0l-.1,0h0v0h0l0,.07-.06.07h0v.57h0l.06.07,0,.07h0v0h0l.11,0h0v0l0,.08h0l0,0h.12l0,.07V18h0l0,0h0l.12,0h0a.14.14,0,0,1,0,.12h0l.06,0h0l.11-.06.07.09h0l.07-.1.12.06h0l0,0h0l0-.12h0l.08,0h0v-.06l0-.06h.12l0,0h0V17.7h0l.07,0h.05v0h0l-.06-.11h0s0-.06.1-.08h0V16.9Z"/><path class="cls-3" d="M136.91,16.73v.55c-.07,0-.1,0-.11.08l.07.11v0c-.06,0-.1,0-.13,0v.16h-.13s0,.06,0,.13h0c-.06,0-.1,0-.14,0l0,.12,0,0-.12-.06-.07.1h0l-.07-.08-.11.05h-.05c0-.07,0-.11-.06-.13l-.12,0,0,0a.13.13,0,0,0,0-.14h-.12l0,0a.13.13,0,0,0,0-.14l-.1,0,0,0h0c.07,0,.07-.15,0-.14h0v-.57h0c.09,0,.09-.12,0-.14h0l0,0,.1,0a.13.13,0,0,0,0-.14l0,0h.12a.13.13,0,0,0,0-.14l0,0,.12,0a.12.12,0,0,0,.06-.12l.05,0,.11.05.07-.08h0l.07.1.12-.06,0,0,0,.12a.13.13,0,0,0,.14,0h0c0,.06,0,.08,0,.12h.13v.16a.12.12,0,0,0,.13,0v0l-.07.11S136.84,16.72,136.91,16.73Z"/><path d="M136.91,16.73h0v.55h0c-.07,0-.1.05-.11.09h0l.06.1v0h0l-.08,0h0v.16h-.13l0,.06v.07h0l-.09,0-.05,0h0l0,.12h0l-.12-.06h0l-.07.1h0l-.08-.09h0l-.11.06-.05,0h0c0-.07,0-.11-.06-.13h0l-.12,0,0,0h0v-.06l0-.08h-.12v0h0l0-.09,0-.05h0l-.1,0,0,0h0l.05-.08-.07-.08h0v-.57h0l.07-.08-.05-.08h0l0,0,.1,0h0l0-.06,0-.09h0v0h.12l0-.08v-.06h0l0,0,.12,0h0a.12.12,0,0,0,.06-.12h0l.05,0,.11.06h0l.08-.09h0l.06.1h0l.12-.06h0l0,.12h0l.05,0,.09,0h0v.07l0,.06h.13v.16h0l.08,0h0v0l-.06.1h0s0,.07.11.09h0c-.06,0-.1,0-.11-.08h0l.07-.11h0v0h-.05l-.08,0h0v-.13h0l0,0h-.12l0-.06v-.06h0l-.08,0h-.05l0-.12h0l0,0h0l-.12.06-.07-.1h0l-.07.09-.11-.06h0l-.06,0h0a.12.12,0,0,1-.06.12h0l-.12,0h0l0,0h0v.06l0,.07h-.11l0,0h0l0,.08v0h0l-.11,0h0v0h0l0,.07-.06.07h0v.57h0l.06.07,0,.07h0v0h0l.11,0h0v.05l0,.08h0l0,0h.11l0,.07v.06h0l0,0h0l.12,0h0s.06.06.06.13h0l.06,0h0l.11-.06.07.09h0l.07-.1.12.06h0l0-.12h.05l.08,0h0v-.06l0-.06h.12l0,0h0v-.13h0l.08,0h.05v-.05h0l-.07-.11h0s0-.07.11-.09h0v-.55Z"/><path class="cls-3" d="M153,16.62v.54a.13.13,0,0,0-.1.09l.06.11v0a.12.12,0,0,0-.13,0v.16h-.13s0,.05,0,.12h0a.11.11,0,0,0-.13,0l0,.12,0,0-.12-.07-.07.1h0l-.07-.09-.11.06-.06,0a.12.12,0,0,0-.06-.12l-.11,0,0,0a.13.13,0,0,0,0-.14h-.12l0,0a.11.11,0,0,0,0-.13l-.11,0v0h0c.07,0,.06-.15,0-.14h0v-.57h0c.09,0,.1-.12,0-.15h0v0l.11,0a.13.13,0,0,0,0-.14l0,0h.12s0-.07,0-.13l0,0,.11,0s.06-.06.06-.13l.06,0,.11.06.07-.09h0l.07.1.12-.06,0,0,0,.12a.13.13,0,0,0,.13,0h0c0,.07,0,.09,0,.13h.13v.17s.07,0,.13,0v0l-.06.1A.11.11,0,0,0,153,16.62Z"/><path d="M153,16.62h0v.54h0c-.06,0-.1.05-.11.09h0l.07.11v0h-.05l-.07,0h0v.12l0,0h-.12l0,.06v.06h0l-.1,0h-.05l0,.12h0l-.12-.06h0l-.07.1h0l-.07-.09h0l-.11.06-.06,0h0a.14.14,0,0,0-.06-.13h0l-.11,0,0,0h0v-.06l0-.08h-.12v0h0l0-.09,0-.06h0l-.1,0,0,0h0l.05-.08-.07-.08h0v-.57h0l.07-.07-.05-.08h0l0,0,.1,0h0l0-.05,0-.09h0v0h.12l0-.08v-.06h0l0,0,.11,0h0s.06-.06.06-.13h0l.06,0,.11.05h0l.07-.09h0l.07.09h0l.13-.07,0,0,0,.12h.05l.1,0h0v.07l0,.06h.12l0,0v.13h0l.07,0h.05v0l-.07.1h0s0,.08.11.1h0c-.07,0-.1-.05-.11-.09h0l.07-.11h0v0h-.06l-.07,0h0v-.13h0v0h-.13l0-.05v-.07h0l-.09,0,0,0h0l0-.12h0l0,0h0l-.12.07-.07-.1h0l-.07.08-.11-.05h0l-.06,0h0q0,.11-.06.12h0l-.12,0h0l0,0h0v.06l0,.07h-.11l0,0h0l0,.09,0,.05h0l-.11,0h0l0,0h0l0,.07-.06.06h0v.59h0l.06.07,0,.07h0l0,0h0l.11,0h0l0,.05,0,.08h0l0,0h.11l0,.07v.06h0l0,0h0l.12,0h0a.12.12,0,0,1,.06.12h0l.06,0h0l.11-.06.07.08h0l.07-.1.12.06h0l0,0h0l0-.12h0l.09,0h0v-.06l0-.06h.13v0h0v-.13h0l.07,0h.06v0h0l-.07-.11h0s0-.07.11-.08h0v-.55h0Z"/><path class="cls-3" d="M161.06,16.68v.54a.13.13,0,0,0-.1.09l.06.1v0a.12.12,0,0,0-.12,0v.16h-.13s0,.06,0,.13h0a.15.15,0,0,0-.14,0l0,.13h0l-.13-.06-.07.1h0l-.07-.09-.11.06-.06,0c0-.07,0-.11-.06-.13l-.11,0,0,0c0-.07,0-.11,0-.14h-.11l0,0a.15.15,0,0,0,0-.14l-.11,0v0h0c.07,0,.06-.16,0-.15h0v-.58h0a.08.08,0,0,0,0-.15h0v0l.11,0a.15.15,0,0,0,0-.14l0,0h.11s0-.08,0-.14l0,0,.11,0s.06-.06.06-.12l.06,0,.11.06.07-.09h0l.07.1.13-.06h0l0,.12a.11.11,0,0,0,.14,0h0c0,.07,0,.08,0,.12h.13v.16a.1.1,0,0,0,.12,0v0l-.06.11A.13.13,0,0,0,161.06,16.68Z"/><path d="M161.06,16.68h0v.54h0a.12.12,0,0,0-.11.09h0l.07.11v0h0l-.08,0h0v.16h-.12l0,.06,0,.07h0l-.09,0h-.05l0,.12,0,0-.12-.06h0l-.07.11h0l-.07-.08h0l-.12.05-.05,0h0c0-.07,0-.11-.07-.13h0l-.11,0,0,0h0V17.7l0-.08h-.12l0,0h0l0-.09v-.05h0l-.1,0,0,0h0l0-.08-.07-.07h0v-.58h0l.07-.07,0-.08h0l0,0,.1,0h0v-.05l0-.09h0l0,0h.12l0-.07v-.07h0l0,0,.11,0h0a.13.13,0,0,0,.07-.13h0l.05,0,.11.06h0l.07-.09h0l.07.1h0l.13-.06,0,0,0,.11h.05l.09,0h0l0,.07,0,.06h.12v.15h0l.08,0h0v0l-.07.11h0a.12.12,0,0,0,.11.09h0a.11.11,0,0,1-.1-.08h0l.07-.1h0v0H161l-.07,0h0V16.3h0v0h-.13l0-.05,0-.07h0l-.09,0h0l0-.12h0l0,0h0l-.12.06-.07-.09h0l-.07.08L160.1,16h0L160,16h0a.12.12,0,0,1-.06.12h0l-.11,0h0l0,0h0v.07l0,.07h-.11l0,0h0l0,.09,0,0h0l-.1,0h0l0,0h0l.05.08-.06.06h0v.58h0l.06.06-.05.07h0l0,0h0l.1,0h0l0,.05,0,.09h0l0,0h.11l0,.07v.06h0l0,0h0l.11,0h0s.06,0,.06.12h0l.05,0h0l.11,0,.07.08h0l.07-.09.12.06h0l0,0h0l0-.12h0l.09,0h0l0-.07,0-.05h.13v0h0v-.12h0l.07,0H161v0h0l-.07-.1h0a.13.13,0,0,1,.1-.09h0v-.54h0Z"/><path class="cls-3" d="M144.73,16.85v.54c-.06,0-.09,0-.1.09l.06.1v0a.12.12,0,0,0-.12,0v.16h-.13s0,.06,0,.13h0a.13.13,0,0,0-.13,0l0,.12,0,0-.12-.06-.07.1h0l-.07-.09-.11.06-.06,0c0-.07,0-.11-.06-.13l-.11,0,0,0c0-.06,0-.1,0-.13h-.11l0,0a.13.13,0,0,0,0-.14l-.11,0v0h0c.07,0,.06-.16,0-.15h0v-.57h0c.09,0,.1-.12,0-.14h0v0l.11,0a.12.12,0,0,0,0-.14l0,0h.11s0-.08,0-.14l0,0,.11,0a.12.12,0,0,0,.06-.12l.06,0,.11.06.07-.09h0l.07.1.12-.07,0,0,0,.12a.11.11,0,0,0,.13,0h0c0,.07,0,.08,0,.12h.13v.16a.1.1,0,0,0,.12,0v0l-.06.11A.13.13,0,0,0,144.73,16.85Z"/><path d="M144.73,16.85h0v.54h0a.12.12,0,0,0-.11.09h0l.07.1v0h-.05l-.08,0h0v.16h-.12l0,.06v.07h0l-.09,0h-.05l0,.12,0,0-.12-.06h0l-.07.1h0l-.07-.08h0l-.11.06-.06,0h0c0-.07,0-.11-.06-.13h0l-.11,0,0,0h0v-.07l0-.08h-.12l0,0h0l0-.09,0-.05h0l-.1,0,0,0h0l.05-.08-.07-.07h0v-.57h0l.07-.08-.05-.07h0l0,0,.1,0h0l0-.06,0-.09h0l0,0h.12l0-.08V16.3h0l0,0,.11,0h0a.14.14,0,0,0,.06-.13h0l.06,0,.1.06h0l.07-.09h0l.07.1h0l.13-.06h0l0,.12h.05l.09,0h0v.07l0,.06h.12v.16h0l.08,0h.05v0l-.07.11h0s0,.07.11.09h0a.11.11,0,0,1-.1-.08h0l.07-.11h0v0h-.06l-.07,0h0v-.12h0v0h-.13l0-.05,0-.07h0l-.09,0h0l0-.12h0l0,0h0l-.12.06-.07-.1h0l-.07.08-.11-.06h0l-.06,0h0a.12.12,0,0,1-.06.12h0l-.11,0h0l0,0h0v.06l0,.08h-.11l0,0h0l0,.08,0,.05h0l-.1,0h0l0,0h0l0,.07-.06.07h0v.57h0l.06.06,0,.07h0l0,0h0l.1,0h0l0,.05,0,.09h0l0,0h.11l0,.07v.06h0l0,0h0l.11,0h0s.06.05.06.12h0l0,0h0l.11-.05.07.08h0l.07-.1.12.07h0l0,0h0l0-.13h0l.09,0h0l0-.07,0-.05h.13v0h0v-.12h0l.07,0h.06v-.05h0l-.07-.11h0a.13.13,0,0,1,.1-.09h0v-.54h0Z"/><path class="cls-3" d="M177.11,16.79v.54c-.06,0-.1.05-.11.09l.07.11v0a.1.1,0,0,0-.12,0v.12l0,0h-.12s0,0,0,.12h0a.12.12,0,0,0-.14,0l0,.12,0,0-.13-.07-.07.1h0l-.08-.09-.11.06,0,0c0-.06,0-.11-.06-.12l-.11,0,0,0a.13.13,0,0,0,0-.14h-.11l0,0a.12.12,0,0,0,0-.14l-.1,0,0,0h0c.08,0,.07-.15,0-.14h0v-.57h0c.09,0,.1-.12,0-.15h0l0,0,.1,0s0-.08,0-.14l0,0h.11a.12.12,0,0,0,0-.13l0,0,.11,0s.06-.06.06-.13l0,0,.11.06.08-.09h0l.07.1.13-.06,0,0,0,.12a.15.15,0,0,0,.14,0h0c0,.07,0,.09,0,.13h.12l0,0v.12a.12.12,0,0,0,.12,0v0l-.07.1S177.05,16.77,177.11,16.79Z"/><path d="M177.11,16.79h0v.54h0a.13.13,0,0,0-.11.09h0l.06.11v0H177l-.08,0h0v.15h-.13l0,.06,0,.07h0l-.09,0h0l0,.12,0,0-.13-.06h0l-.07.1h0l-.07-.09h0l-.12.06,0,0h0a.14.14,0,0,0-.06-.13h0l-.11,0,0,0h0v-.06l0-.08h-.11l0,0h0l0-.1v-.05h0l-.11,0v0h0l.06-.08-.07-.07h0v-.57h0l.07-.07-.06-.08h0v0l.1,0h0V16.5l0-.09h0l0,0h.11l0-.08v-.07h0l0,0,.11,0h0s.06-.06.06-.13h0l0,0,.11.05h0l.07-.08h0l.07.09h0l.13-.07,0,0,0,.12h0l.09,0h0l0,.07,0,.06h.13v.15h0l.08,0h.05v0l-.06.11h0a.12.12,0,0,0,.11.09h0a.13.13,0,0,1-.1-.09h0l.06-.1h0v0H177l-.07,0h0v-.12h0v0h-.13l0-.05,0-.07h0l-.09,0h0l0-.12h0l0,0h0l-.13.06-.06-.09h0l-.08.08-.11-.05h0l0,0h0c0,.07,0,.11-.05.12h0l-.11,0h0l0,0h0v.06l0,.07h-.12l0,0h0l0,.09v.05h0l-.1,0h0l0,0h0l0,.07-.06.06h0v.59h0l.06.06,0,.08h0l0,0h0l.1,0h0v0l0,.09h0l0,0h.12l0,.08v.06h0l0,0h0l.11,0h0s.05.06.05.12h0l.06,0h0l.11-.06.07.08h0l.07-.1.12.06h0l0,0h0l0-.12h0l.09,0h0l0-.07,0,0h.13v0h0v-.12h0l.07,0h.06v0h0l-.06-.11h0a.11.11,0,0,1,.1-.08h0v-.55Z"/><path class="cls-3" d="M169.06,16.9v.55a.12.12,0,0,0-.11.08l.07.11v0a.12.12,0,0,0-.13,0v.16h-.12s0,.05,0,.12h0a.13.13,0,0,0-.14,0l0,.12,0,0-.12-.06-.07.09h0l-.08-.08-.11.05-.05,0A.12.12,0,0,0,168,18l-.12,0,0,0a.13.13,0,0,0,0-.14h-.12v0a.14.14,0,0,0,0-.14l-.1,0,0,0h0c.07,0,.07-.15,0-.14h0v-.57h0c.09,0,.09-.12,0-.14h0l0,0,.1,0a.14.14,0,0,0,0-.14v0h.12a.13.13,0,0,0,0-.14l0,0,.12,0s.06-.06.06-.13l.05,0,.11.06.08-.08h0l.07.1.12-.06,0,0,0,.12s.08,0,.14,0h0c0,.07,0,.09,0,.13h.12v.16s.07,0,.13,0v0l-.07.11A.12.12,0,0,0,169.06,16.9Z"/><path d="M169.06,16.9h0v.55h0c-.07,0-.1,0-.11.09h0l.06.11v0h0l-.08,0h0v.16h-.13l0,.06,0,.07h0l-.09,0-.05,0h0l0,.12h0l-.12-.06h0l-.07.1h0l-.07-.09h0l-.11.06-.05,0h0A.14.14,0,0,0,168,18h0l-.12,0,0,0h0v-.06l0-.08h-.11l0,0h0l0-.09v-.06h0l-.1,0v0h0l.06-.08-.07-.08h0v-.57h0l.07-.08-.06-.08h0v0l.1,0h0v-.05l0-.09h0l0,0h.11l0-.08v-.06h0l0,0,.12,0h0s.06-.06.06-.13h0l.05,0,.11.06h0l.08-.09h0l.07.1h0l.12-.06h0l0,.12h0l.05,0,.09,0h0l0,.07,0,.06h.13v.16h0l.08,0h0v0l-.06.1h0s0,.07.11.09h0a.13.13,0,0,1-.1-.09h0l.06-.11h0v0h0l-.07,0h0v-.13h0v0h-.13l0-.06v-.06h0l-.09,0-.05,0h0l0-.12h0l-.12.06-.07-.1h0l-.07.09-.11-.06h0l-.05,0h0a.14.14,0,0,1-.05.13h0l-.12,0h0l0,0h0v.06l0,.07h-.12l0,0h0l0,.08v.05h0l-.1,0h0v0h0l.05.07-.06.07h0v.57h0l.06.07-.05.07h0v0h0l.11,0h0v0l0,.08h0l0,0h.12l0,.07V18h0l0,0h0l.12,0h0a.14.14,0,0,1,.05.12h0l.06,0h0l.11-.06.07.09h0l.07-.1.12.06h0l0,0h0l0-.12h.05l.09,0h0v-.06l0-.06h.12l0,0h0V17.7h0l.07,0h0v0h0l-.06-.11h0s0-.06.1-.08h0V16.9Z"/><path class="cls-3" d="M185.22,16.73v.55a.12.12,0,0,0-.11.08l.07.11v0c-.06,0-.1,0-.13,0v.16h-.12s0,.06,0,.13h0c-.06,0-.1,0-.14,0l0,.12,0,0-.12-.06-.07.1h0l-.08-.08-.11.05h-.05c0-.07,0-.11-.06-.13l-.12,0,0,0a.13.13,0,0,0,0-.14h-.11l0,0a.14.14,0,0,0,0-.14l-.1,0,0,0h0c.07,0,.07-.15,0-.14h0v-.57h0c.09,0,.09-.12,0-.14h0l0,0,.1,0a.14.14,0,0,0,0-.14l0,0H184a.13.13,0,0,0,0-.14l0,0,.12,0a.12.12,0,0,0,.06-.12l.05,0,.11.05.08-.08h0l.07.1.12-.06,0,0,0,.12a.13.13,0,0,0,.14,0h0c0,.06,0,.08,0,.12H185v.16a.12.12,0,0,0,.13,0v0l-.07.11A.12.12,0,0,0,185.22,16.73Z"/><path d="M185.22,16.73h0v.55h0c-.07,0-.1.05-.11.09h0l.06.1v0h0l-.08,0h0v.16h-.13l0,.06,0,.07h0l-.09,0-.05,0h0l0,.12h0l-.12-.06h0l-.07.1h0l-.07-.09h0l-.11.06-.05,0h0c0-.07,0-.11-.06-.13h0l-.12,0,0,0h0v-.06l0-.08h-.11l0,0h0l0-.09v-.05h0l-.1,0v0h0l.06-.08-.07-.08h0v-.57h0l.07-.08-.06-.08h0v0l.1,0h0v-.06l0-.09h0l0,0H184l0-.08v-.06h0l0,0,.12,0h0a.12.12,0,0,0,.06-.12h0l.05,0,.11.06h0l.08-.09h0l.07.1h0l.12-.06h0l0,.12h0l.05,0,.09,0h0l0,.07,0,.06H185v.16h0l.08,0h0v0l-.06.1h0s0,.07.11.09h0c-.06,0-.09,0-.1-.08h0l.06-.11h0v0h0l-.07,0h0v-.13h0v0h-.13l0-.06,0-.06h0l-.09,0h0l0-.12h0l0,0h0l-.12.06-.07-.1h0l-.07.09-.11-.06h0l-.05,0h0a.14.14,0,0,1-.05.12h0l-.11,0h0l0,0h0v.06l0,.07h-.12l0,0h0l0,.08v0h0l-.1,0h0l0,0h0l.05.07-.06.07h0v.57h0l.06.07-.05.07h0v0h0l.1,0h0v.05l0,.08h0l0,0H184l0,.07v.06h0l0,0h0l.12,0h0a.14.14,0,0,1,.05.13h0l.06,0h0l.11-.06.07.09h0l.07-.1.12.06h0l0-.12h0l.09,0h0l0-.06,0-.06H185l0,0h0v-.13h0l.07,0h0v-.05h0l-.06-.11h0a.13.13,0,0,1,.1-.09h0v-.55Z"/><path class="cls-3" d="M193.16,16.73v.55a.12.12,0,0,0-.11.08l.07.11v0c-.06,0-.1,0-.13,0v.16h-.12s0,.06,0,.13h0c-.06,0-.1,0-.14,0l0,.12,0,0-.12-.06-.07.1h0l-.08-.08-.11.05h-.05c0-.07,0-.11-.06-.13l-.12,0,0,0a.13.13,0,0,0,0-.14h-.12v0a.14.14,0,0,0,0-.14l-.1,0,0,0h0c.07,0,.07-.15,0-.14h0v-.57h0c.09,0,.09-.12,0-.14h0l0,0,.1,0a.14.14,0,0,0,0-.14v0h.12a.13.13,0,0,0,0-.14l0,0,.12,0a.12.12,0,0,0,.06-.12l.05,0,.11.05.08-.08h0l.07.1.12-.06,0,0,0,.12a.13.13,0,0,0,.14,0h0c0,.06,0,.08,0,.12H193v.16a.12.12,0,0,0,.13,0v0l-.07.11A.12.12,0,0,0,193.16,16.73Z"/><path d="M193.16,16.73h0v.55h0c-.07,0-.1.05-.11.09h0l.06.1v0h-.05l-.08,0h0v.16h-.13l0,.06,0,.07h0l-.09,0-.05,0h0l0,.12h0l-.12-.06h0l-.07.1h0l-.07-.09h0l-.11.06-.05,0h0c0-.07,0-.11-.06-.13h0l-.12,0,0,0h0v-.06l0-.08h-.11l0,0h0l0-.09v-.05h0l-.1,0v0h0l.06-.08-.07-.08h0v-.57h0l.07-.08-.06-.08h0v0l.1,0h0v-.06l0-.09h0l0,0h.11l0-.08v-.06h0l0,0,.12,0h0a.12.12,0,0,0,.06-.12h0l.05,0,.11.06h0l.08-.09h0l.07.1h0l.12-.06h0l0,.12h0l.05,0,.09,0h0l0,.07,0,.06H193v.16h0l.08,0h.05v0l-.06.1h0s0,.07.11.09h0c-.06,0-.09,0-.1-.08h0l.06-.11h0v0h-.05l-.07,0h0v-.13h0v0h-.13l0-.06v-.06h0l-.09,0h-.05l0-.12h0l0,0h0l-.12.06-.07-.1h0l-.07.09-.11-.06h0l-.05,0h0a.14.14,0,0,1,0,.12h0l-.12,0h0l0,0h0v.06l0,.07h-.12l0,0h0l0,.08v0h0l-.1,0h0v0h0l.05.07-.06.07h0v.57h0l.06.07-.05.07h0v0h0l.11,0h0v.05l0,.08h0l0,0h.12l0,.07v.06h0l0,0h0l.12,0h0a.14.14,0,0,1,0,.13h0l.06,0h0l.11-.06.07.09h0l.07-.1.12.06h0l0-.12h.05l.09,0h0v-.06l0-.06H193l0,0h0v-.13h0l.07,0h.05v-.05h0l-.06-.11h0a.13.13,0,0,1,.1-.09h0v-.55Z"/><path class="cls-3" d="M201.21,16.79v.54c-.06,0-.1.05-.11.09l.07.11v0a.1.1,0,0,0-.12,0v.12l0,0h-.12s0,0,0,.12h0a.12.12,0,0,0-.14,0l0,.12,0,0-.13-.07-.07.1h0l-.08-.09-.11.06-.05,0c0-.06,0-.11-.06-.12l-.11,0,0,0a.13.13,0,0,0,0-.14h-.11l0,0a.12.12,0,0,0,0-.14l-.1,0,0,0h0c.08,0,.07-.15,0-.14h0v-.57h0c.09,0,.1-.12,0-.15h0l0,0,.1,0s0-.08,0-.14l0,0H200a.12.12,0,0,0,0-.13l0,0,.11,0s.06-.06.06-.13l.05,0,.11.06.08-.09h0l.07.1.13-.06,0,0,0,.12a.15.15,0,0,0,.14,0h0c0,.07,0,.09,0,.13H201l0,0v.12a.12.12,0,0,0,.12,0v0l-.07.1S201.15,16.77,201.21,16.79Z"/><path d="M201.21,16.79h0v.54h0a.13.13,0,0,0-.11.09h0l.06.11v0h0l-.08,0h0v.15h-.13l0,.06,0,.07h0l-.09,0h0l0,.12,0,0-.13-.06h0l-.07.1h0l-.07-.09h0l-.12.06-.05,0h0a.14.14,0,0,0-.06-.13h0l-.11,0,0,0h0v-.06l0-.08h-.11l0,0h0l0-.1v-.05h0l-.11,0v0h0l.06-.08-.07-.07h0v-.57h0l.07-.07-.06-.08h0v0l.1,0h0V16.5l0-.09h0l0,0H200l0-.08v-.07h0l0,0,.11,0h0s.06-.06.06-.13h0l.05,0,.11.05h0l.07-.08h0l.07.09h0l.13-.07,0,0,0,.12h0l.09,0h0l0,.07,0,.06H201v.15h0l.08,0h0v0l-.06.11h0a.12.12,0,0,0,.11.09h0a.13.13,0,0,1-.1-.09h0l.06-.1h0v0h-.06l-.07,0h0v-.12h0v0h-.13l0-.05,0-.07h0l-.09,0h0l0-.12h0l0,0h0l-.13.06-.06-.09h0l-.08.08-.11-.05h0l-.05,0h0c0,.07,0,.11-.05.12h0l-.11,0h0l0,0h0v.06l0,.07h-.12l0,0h0l0,.09v.05h0l-.1,0h0l0,0h0l.05.07-.06.06h0v.59h0l.06.06-.05.08h0l0,0h0l.1,0h0v0l0,.09h0l0,0H200l0,.08v.06h0l0,0h0l.12,0h0s.05.06.05.12h0l.06,0h0l.11-.06.07.08h0l.07-.1.12.06h0l0,0h0l0-.12h0l.09,0h0l0-.07,0,0H201v0h0v-.12h0l.07,0h.06v0h0l-.06-.11h0a.11.11,0,0,1,.1-.08h0v-.55Z"/><path class="cls-3" d="M209.09,16.79v.54a.13.13,0,0,0-.1.09l.06.11v0a.12.12,0,0,0-.13,0v.16h-.13s0,0,0,.12h0a.11.11,0,0,0-.13,0l0,.12,0,0-.12-.07-.07.1h0l-.07-.09-.11.06-.06,0c0-.06,0-.11-.06-.12l-.11,0,0,0c0-.06,0-.11,0-.14h-.11l0,0a.12.12,0,0,0,0-.14l-.11,0v0h0c.07,0,.06-.15,0-.14h0v-.57h0c.09,0,.1-.12,0-.15h0v0l.11,0a.13.13,0,0,0,0-.14l0,0h.11s0-.07,0-.13l0,0,.11,0s.06-.06.06-.13l.06,0,.11.06.07-.09h0l.07.1.12-.06,0,0,0,.12a.13.13,0,0,0,.13,0h0c0,.07,0,.09,0,.13h.13v.16a.14.14,0,0,0,.13,0v0l-.06.1A.13.13,0,0,0,209.09,16.79Z"/><path d="M209.09,16.79h0v.54h0a.13.13,0,0,0-.11.09h0l.07.11v0h0l-.08,0h0v.15h-.12l0,.06v.07h0l-.1,0h0l0,.12,0,0-.12-.06h0l-.07.1h0l-.07-.09h0l-.11.06-.06,0h0a.14.14,0,0,0-.06-.13h0l-.11,0,0,0h0v-.06l0-.08h-.12l0,0h0l0-.1,0-.05h0l-.1,0,0,0h0l0-.08-.07-.07h0v-.57h0l.07-.07,0-.08h0l0,0,.1,0h0l0-.05,0-.09h0l0,0h.12l0-.08v-.07h0l0,0,.11,0h0s.06-.06.06-.13h0l.06,0,.11.05h0l.07-.08h0l.07.09h0l.13-.07,0,0,0,.12h0l.1,0h0v.07l0,.06h.12v.15h0l.08,0h0v0l-.07.11h0a.12.12,0,0,0,.11.09h0a.13.13,0,0,1-.1-.09h0l.07-.1h0v0H209l-.07,0h0v-.12h0v0h-.13l0-.05,0-.07h0l-.09,0h0l0-.12h0l0,0h0l-.12.06-.07-.09h0l-.07.08-.11-.05h0l-.06,0h0q0,.11-.06.12h0l-.12,0h0l0,0h0v.06l0,.07h-.11l0,0h0l0,.09,0,.05h0l-.11,0h0l0,0h0l0,.07-.06.06h0v.59h0l.06.06,0,.08h0l0,0h0l.11,0h0l0,0,0,.09h0l0,0h.11l0,.08v.06h0l0,0h0l.12,0h0a.12.12,0,0,1,.06.12h0l.05,0h0l.11-.06.07.08h0l.07-.1.12.06h0l0,0h0l0-.12h0l.09,0h0l0-.07,0,0h.13v0h0v-.12h0l.07,0h.06v0h0l-.07-.11h0a.11.11,0,0,1,.1-.08h0v-.55h0Z"/><path class="cls-3" d="M216.7,16.62v.54c-.07,0-.1.05-.11.09l.06.11v0a.12.12,0,0,0-.13,0v.16h-.13s0,.05,0,.12h0a.11.11,0,0,0-.13,0l0,.12,0,0-.12-.07-.07.1h0l-.07-.09-.11.06-.06,0a.14.14,0,0,0,0-.12l-.12,0,0,0a.16.16,0,0,0,0-.14h-.12l0,0a.11.11,0,0,0,0-.13l-.11,0v0h0c.07,0,.06-.15,0-.14h0v-.57h0c.09,0,.1-.12,0-.15h0v0l.11,0a.13.13,0,0,0,0-.14l0,0h.12s0-.07,0-.13l0,0,.12,0a.14.14,0,0,0,0-.13l.06,0,.11.06.07-.09h0l.07.1.12-.06,0,0,0,.12a.13.13,0,0,0,.13,0h0c0,.07,0,.09,0,.13h.13v.17s.07,0,.13,0v0l-.06.1S216.63,16.61,216.7,16.62Z"/><path d="M216.7,16.62h0v.54h0c-.06,0-.1.05-.11.09h0l.07.11v0h0l-.07,0h0v.12l0,0h-.12l0,.06v.06h0l-.1,0h-.05l0,.12h0l-.12-.06h0l-.08.1h0l-.07-.09h0l-.11.06,0,0h0a.14.14,0,0,0-.06-.13h0l-.12,0,0,0h0v-.06l0-.08h-.12v0h0l0-.09,0-.06h0l-.1,0,0,0h0l0-.08-.07-.08h0v-.57h0l.07-.07,0-.08h0l0,0,.1,0h0l0-.05,0-.09h0v0h.12l0-.08v-.06h0l0,0,.11,0h0s.06-.06.06-.13h0l0,0,.11.05h0l.07-.09h0L216,16h0l.12-.07,0,0,0,.12h.05l.1,0h0v.07l0,.06h.12l0,0v.13h0l.07,0h0v0l-.06.1h0s0,.08.11.1h0c-.07,0-.1-.05-.11-.09h0l.07-.11h0v0h-.06l-.07,0h0v-.13h0l0,0h-.12l0-.05v-.07h0l-.09,0,0,0h0l0-.12h0l0,0h0L216,16l-.07-.1h0l-.07.08-.11-.05h0l-.06,0h0q0,.11-.06.12h0l-.12,0h0l0,0h0v.06l0,.07h-.11l0,0h0l0,.09,0,.05h0l-.11,0h0v0h0l0,.07-.06.06h0v.59h0l.06.07,0,.07h0v0h0l.11,0h0l0,.05,0,.08h0l0,0h.11l0,.07v.06h0l0,0h0l.12,0h0a.12.12,0,0,1,.06.12h0l.06,0h0l.11-.06.07.08h0l.07-.1.12.06h0l0,0h0l0-.12h0l.09,0h0v-.06l0-.06h.12v0h0v-.13h0l.07,0h.06v0h0l-.07-.11h0s0-.07.11-.08h0v-.55Z"/><path class="cls-3" d="M224.8,16.79v.54a.13.13,0,0,0-.1.09l.06.11v0a.12.12,0,0,0-.13,0v.16h-.13s0,0,0,.12h0a.11.11,0,0,0-.13,0l0,.12,0,0-.12-.07-.07.1h0L224,18l-.11.06-.06,0c0-.06,0-.11-.06-.12l-.11,0,0,0c0-.06,0-.11,0-.14h-.11l0,0a.12.12,0,0,0,0-.14l-.11,0v0h0c.07,0,.06-.15,0-.14h0v-.57h0c.09,0,.1-.12,0-.15h0v0l.11,0a.13.13,0,0,0,0-.14l0,0h.11s0-.07,0-.13l0,0,.11,0s.06-.06.06-.13l.06,0,.11.06.07-.09h0l.07.1.12-.06,0,0,0,.12a.13.13,0,0,0,.13,0h0c0,.07,0,.09,0,.13h.13v.16a.14.14,0,0,0,.13,0v0l-.06.1A.13.13,0,0,0,224.8,16.79Z"/><path d="M224.8,16.79h0v.54h0a.13.13,0,0,0-.11.09h0l.07.11v0h-.05l-.08,0h0v.15h-.12l0,.06v.07h0l-.1,0h0l0,.12,0,0-.12-.06h0L224,18h0L224,18h0l-.11.06-.06,0h0a.14.14,0,0,0-.06-.13h0l-.11,0,0,0h0v-.06l0-.08h-.12l0,0h0l0-.1,0-.05h0l-.1,0,0,0h0l.05-.08-.07-.07h0v-.57h0l.07-.07-.05-.08h0l0,0,.1,0h0l0-.05,0-.09h0l0,0h.12l0-.08v-.07h0l0,0,.11,0h0s.06-.06.06-.13h0l.06,0,.11.05h0l.07-.08h0l.07.09h0l.13-.07,0,0,0,.12h0l.1,0h0v.07l0,.06h.12v.15h0l.08,0h.05v0l-.07.11h0a.12.12,0,0,0,.11.09h0a.13.13,0,0,1-.1-.09h0l.07-.1h0v0h-.06l-.07,0h0v-.12h0v0h-.13l0-.05,0-.07h0l-.09,0h0l0-.12h0l0,0h0l-.12.06-.07-.09h0l-.07.08-.11-.05h0l-.06,0h0q0,.11-.06.12h0l-.12,0h0l0,0h0v.06l0,.07h-.11l0,0h0l0,.09,0,.05h0l-.11,0h0l0,0h0l0,.07-.06.06h0v.59h0l.06.06,0,.08h0l0,0h0l.11,0h0l0,0,0,.09h0l0,0h.11l0,.08v.06h0l0,0h0l.12,0h0a.12.12,0,0,1,.06.12h0l.05,0h0L224,18,224,18h0l.07-.1.12.06h0l0,0h0l0-.12h0l.09,0h0l0-.07,0,0h.13v0h0v-.12h0l.07,0h.06v0h0l-.07-.11h0a.11.11,0,0,1,.1-.08h0v-.55h0Z"/><rect x="246.23" y="32.49" width="1.35" height="1.69"/><polygon points="246.23 32.49 246.23 32.54 247.53 32.54 247.53 34.12 246.29 34.12 246.29 32.49 246.23 32.49 246.23 32.54 246.23 32.49 246.18 32.49 246.18 34.23 247.64 34.23 247.64 32.43 246.18 32.43 246.18 32.49 246.23 32.49"/><circle cx="56.07" cy="33.74" r="0.97"/><path d="M55.09,33.74h.06a.92.92,0,1,1,.92.91.92.92,0,0,1-.92-.91H55a1,1,0,1,0,1-1,1,1,0,0,0-1,1Z"/><circle cx="71.87" cy="33.8" r="0.97"/><path d="M70.9,33.8h0a.92.92,0,1,1,.92.92A.92.92,0,0,1,71,33.8h-.11a1,1,0,1,0,1-1,1,1,0,0,0-1,1Z"/><circle cx="87.52" cy="33.8" r="0.97"/><path d="M86.55,33.8h.06a.92.92,0,1,1,.91.92.91.91,0,0,1-.91-.92h-.12a1,1,0,1,0,1-1,1,1,0,0,0-1,1Z"/><circle cx="103.68" cy="33.69" r="0.97"/><path d="M102.71,33.69h.06a.92.92,0,1,1,.91.91.92.92,0,0,1-.91-.91h-.12a1,1,0,1,0,1-1,1,1,0,0,0-1,1Z"/><circle cx="119.87" cy="33.72" r="0.97"/><path d="M118.9,33.72H119a.92.92,0,1,1,.91.91.92.92,0,0,1-.91-.91h-.12a1,1,0,1,0,1-1,1,1,0,0,0-1,1Z"/><circle cx="136.14" cy="33.69" r="0.97"/><path d="M135.17,33.69h.06a.92.92,0,1,1,.91.91.92.92,0,0,1-.91-.91h-.11a1,1,0,1,0,1-1,1,1,0,0,0-1,1Z"/><circle cx="152.22" cy="33.72" r="0.97"/><path d="M151.25,33.72h.05a.92.92,0,1,1,1.83,0,.92.92,0,0,1-1.83,0h-.11a1,1,0,1,0,1-1,1,1,0,0,0-1,1Z"/><circle cx="168.3" cy="33.77" r="0.97"/><path d="M167.32,33.77h.06a.92.92,0,1,1,.92.92.92.92,0,0,1-.92-.92h-.11a1,1,0,1,0,1-1,1,1,0,0,0-1,1Z"/><circle cx="184.4" cy="33.72" r="0.97"/><path d="M183.43,33.72h0a.92.92,0,1,1,1.83,0,.92.92,0,0,1-1.83,0h-.11a1,1,0,1,0,1-1,1,1,0,0,0-1,1Z"/><circle cx="200.48" cy="33.63" r="0.97"/><path d="M199.5,33.63h.06a.92.92,0,1,1,.92.92.92.92,0,0,1-.92-.92h-.11a1,1,0,1,0,1-1,1,1,0,0,0-1,1Z"/><circle cx="216.1" cy="33.55" r="0.97"/><path d="M215.13,33.55h.06a.92.92,0,1,1,.91.91.92.92,0,0,1-.91-.91h-.12a1,1,0,1,0,1-1,1,1,0,0,0-1,1Z"/><circle cx="232.32" cy="33.44" r="0.97"/><path d="M231.35,33.44h.05a.92.92,0,1,1,.92.91.92.92,0,0,1-.92-.91h-.11a1,1,0,1,0,1-1,1,1,0,0,0-1,1Z"/><polyline points="83.57 119.08 66.02 119.08 66.02 121.25 83.57 121.25 83.57 119.08"/><polyline points="105.07 119.08 87.31 119.08 87.31 121.25 105.07 121.25 105.07 119.08"/><polyline points="126.4 119.08 108.8 119.08 108.8 121.25 126.4 121.25 126.4 119.08"/><polyline points="147.59 119.08 130.3 119.08 130.3 121.25 147.59 121.25 147.59 119.08"/><polyline points="169.03 119.08 151.46 119.08 151.46 121.25 169.03 121.25 169.03 119.08"/><polyline points="190.47 119.08 172.69 119.08 172.69 121.25 190.47 121.25 190.47 119.08"/><polyline points="211.21 119.08 193.83 119.08 193.83 121.25 211.21 121.25"/><polyline points="232.15 119.08 214.54 119.08 214.54 121.25 232.15 121.25"/><polygon points="250.65 117.31 250.65 119.08 235.43 119.08 235.43 121.25 252.82 121.25 252.82 117.31 250.65 117.31 250.65 117.31"/><polyline points="60.46 87.44 60.46 104.49 62.26 104.49 62.26 87.44"/><polyline points="59.67 105.21 62.93 105.21 62.93 103.11 59.67 103.11 59.67 105.21"/><polyline points="76.01 87.44 76.01 104.49 77.81 104.49 77.81 87.44"/><polyline points="75.44 105.28 78.48 105.28 78.48 103.17 75.44 103.17 75.44 105.28"/><polyline points="92.13 87.44 92.13 104.49 93.93 104.49 93.93 87.44"/><polyline points="91.55 105.28 94.59 105.28 94.59 103.17 91.55 103.17 91.55 105.28"/><polyline points="108.15 87.44 108.15 104.49 109.95 104.49 109.95 87.44"/><polyline points="107.57 105.28 110.61 105.28 110.61 103.17 107.57 103.17 107.57 105.28"/><polyline points="123.74 87.44 123.74 104.49 125.55 104.49 125.55 87.44"/><polyline points="123.17 105.28 126.21 105.28 126.21 103.17 123.17 103.17 123.17 105.28"/><polyline points="140.13 87.44 140.13 104.49 141.93 104.49 141.93 87.44"/><polyline points="139.56 105.28 142.6 105.28 142.6 103.17 139.56 103.17 139.56 105.28"/><polyline points="234.62 87.44 234.62 104.49 236.42 104.49 236.42 87.44"/><polyline points="234.04 105.28 237.08 105.28 237.08 103.17 234.04 103.17"/><polyline points="218.96 87.44 218.96 104.49 220.76 104.49 220.76 87.44"/><polyline points="218.39 105.28 221.43 105.28 221.43 103.17 218.39 103.17"/><polyline points="203.14 87.44 203.14 104.49 204.94 104.49 204.94 87.44"/><polyline points="202.56 105.28 205.61 105.28 205.61 103.17 202.56 103.17"/><polyline points="187.26 87.44 187.26 104.49 189.06 104.49 189.06 87.44"/><polyline points="186.69 105.28 189.73 105.28 189.73 103.17 186.69 103.17"/><polyline points="171.72 87.44 171.72 104.49 173.52 104.49 173.52 87.44"/><polyline points="171.15 105.28 174.19 105.28 174.19 103.17 171.15 103.17 171.15 105.28"/><polyline points="155.67 87.44 155.67 104.49 157.47 104.49 157.47 87.44"/><polyline points="155.1 105.28 158.14 105.28 158.14 103.17 155.1 103.17 155.1 105.28"/><polygon points="251.17 89 251.51 89 251.51 87.82 250.33 87.82 250.33 112.18 252.69 112.18 252.69 86.64 251.17 86.64 251.17 89 251.17 89"/><polyline points="45.26 89.07 252.75 89.07 252.75 86.57 45.26 86.57"/><polyline points="46.48 108.87 46.47 87.82 45.35 87.82 45.35 88.94 45.49 88.94 45.49 86.7 45.35 86.7 44.23 86.7 44.24 108.87 46.48 108.87"/><polyline points="27.93 81.67 27.93 100.59 29.73 100.59 29.73 81.67"/><polyline points="37.77 99.75 44.99 99.75 44.99 97.95 37.77 97.95"/><polyline points="28.66 99.75 35 99.75 35 97.95 28.66 97.95"/><polyline points="46.18 87.59 46.18 81.06 44.38 81.06 44.38 87.59"/><polyline points="27.99 82.29 40.32 82.29 40.32 81.39 27.99 81.39"/><polyline points="39.7 81.51 47.26 81.51 47.26 80.61 39.7 80.61"/><polyline points="43.65 81.06 43.65 83.09 44.55 83.09 44.55 81.06"/><polyline points="37.67 83.23 40.31 83.23 40.31 82.02 37.67 82.02"/><polygon points="29.82 82.49 29.82 82.55 36.77 82.55 36.77 84.72 29.88 84.72 29.88 82.49 29.82 82.49 29.82 82.55 29.82 82.49 29.76 82.49 29.76 84.83 36.89 84.83 36.89 82.43 29.76 82.43 29.76 82.49 29.82 82.49"/><polygon points="41.59 86.29 41.59 86.35 43.84 86.35 43.84 93.13 41.64 93.13 41.64 86.29 41.59 86.29 41.59 86.35 41.59 86.29 41.53 86.29 41.53 93.25 43.95 93.25 43.95 86.23 41.53 86.23 41.53 86.29 41.59 86.29"/><polyline points="29.88 83.56 36.8 83.56 36.8 83.45 29.88 83.45"/><polyline points="42.71 86.23 42.71 93.16 42.83 93.16 42.83 86.23"/><polyline points="62.55 119.08 46.61 119.08 46.61 121.25 62.55 121.25 62.55 119.08"/><polyline points="46.87 119.1 46.46 119.1 46.46 114.66 44.29 114.66 44.29 121.28 46.87 121.28 46.87 119.1"/><polygon points="42.21 99.61 42.21 99.72 43.98 99.72 43.98 100.51 42.32 100.51 42.32 99.61 42.21 99.61 42.21 99.72 42.21 99.61 42.09 99.61 42.09 100.73 44.21 100.73 44.21 99.5 42.09 99.5 42.09 99.61 42.21 99.61"/><circle cx="29.27" cy="105.22" r="0.94"/><path d="M28.33,105.22h.11a.83.83,0,1,1,.83.83.83.83,0,0,1-.83-.83h-.23a1.06,1.06,0,1,0,1.06-1.06,1.07,1.07,0,0,0-1.06,1.06Z"/><circle cx="34.06" cy="105.22" r="0.94"/><path d="M33.11,105.22h.12a.83.83,0,1,1,.83.83.83.83,0,0,1-.83-.83H33a1.06,1.06,0,1,0,1.06-1.06A1.06,1.06,0,0,0,33,105.22Z"/><circle cx="38.59" cy="105.22" r="0.94"/><path d="M37.65,105.22h.11a.83.83,0,1,1,.83.83.83.83,0,0,1-.83-.83h-.23a1.06,1.06,0,1,0,1.06-1.06,1.07,1.07,0,0,0-1.06,1.06Z"/><circle cx="43.15" cy="105.22" r="0.94"/><path d="M42.21,105.22h.11a.83.83,0,1,1,.83.83.83.83,0,0,1-.83-.83h-.23a1.06,1.06,0,1,0,1.06-1.06,1.07,1.07,0,0,0-1.06,1.06Z"/><polygon points="28.05 99.44 28.05 99.55 44.57 99.55 44.57 108 28.16 108 28.16 99.44 28.05 99.44 28.05 99.55 28.05 99.44 27.93 99.44 27.93 108.22 44.8 108.22 44.8 99.33 27.93 99.33 27.93 99.44 28.05 99.44"/><polyline points="28.05 106.53 44.63 106.53 44.63 106.31 28.05 106.31"/><polyline points="28.13 107.46 45.59 107.46 45.59 107.24 28.13 107.24"/><polygon class="cls-3" points="36.44 119.78 37 119.78 36.44 121.19 35.87 119.78 36.44 119.78"/><polyline points="36.32 115.07 36.32 119.87 36.55 119.87 36.55 115.07"/><polygon class="cls-3" points="36.44 87.45 35.87 87.45 36.44 86.05 37 87.45 36.44 87.45"/><polyline points="36.32 87.36 36.32 110.63 36.55 110.63 36.55 87.36"/><text class="cls-4" transform="translate(32.89 114.3)">1</text><text class="cls-5" transform="translate(34.3 114.3)">1<tspan class="cls-6" x="1.62" y="0">.</tspan><tspan x="2.27" y="0">6</tspan><tspan class="cls-7" x="3.89" y="0">4</tspan></text><polyline points="10.07 90.5 28.31 86.27 28.01 84.96 9.76 89.18"/><polyline points="50.96 88.6 50.96 104.93 51.86 104.93 51.86 88.6"/><polyline points="15.67 89.39 21.3 99.19 21.5 99.07 15.87 89.28"/><polyline points="20.95 99.24 28.05 99.24 28.05 99.02 20.95 99.02"/><polyline points="20.61 97.83 28.21 97.83 28.21 97.61 20.61 97.61"/><polyline points="46.23 98.17 51.24 98.17 51.24 97.95 46.23 97.95"/><polyline points="46.4 99.13 51.13 99.13 51.13 98.9 46.4 98.9"/><polyline points="46.29 99.92 51.3 99.92 51.3 99.69 46.29 99.69"/><polyline points="46.12 100.71 51.53 100.71 51.53 100.48 46.12 100.48"/><polyline points="46.18 101.27 51.08 101.27 51.08 101.04 46.18 101.04"/><polyline points="46.06 101.83 51.36 101.83 51.36 101.61 46.06 101.61"/><polyline points="45.9 102.45 51.24 102.45 51.24 102.23 45.9 102.23"/><polyline points="45.95 102.85 51.3 102.85 51.3 102.62 45.95 102.62"/><polyline points="44.21 108.59 44.21 115.06 44.43 115.06 44.43 108.59"/><polyline points="198.01 103.24 209.88 103.24 209.88 103.02 198.01 103.02"/><polyline points="182.28 103.24 193.56 103.24 193.56 103.02 182.28 103.02"/><polyline points="166.84 103.24 178.28 103.24 178.28 103.02 166.84 103.02"/><polyline points="250.75 104.99 50.91 104.99 50.91 105.1 250.75 105.1"/><polyline points="71.4 103.24 82.67 103.24 82.67 103.02 71.4 103.02"/><polyline points="55.64 103.24 67.74 103.24 67.74 103.02 55.64 103.02"/><polyline points="62.22 119.17 237.91 119.17 237.91 119.06 62.22 119.06 62.22 119.17"/><polyline points="62.1 121.26 237.34 121.26 237.34 121.14 62.1 121.14"/><rect x="55.47" y="103.1" width="0.84" height="1.89"/><polygon points="55.47 103.1 55.47 103.16 56.26 103.16 56.26 104.93 55.52 104.93 55.52 103.1 55.47 103.1 55.47 103.16 55.47 103.1 55.41 103.1 55.41 105.04 56.37 105.04 56.37 103.04 55.41 103.04 55.41 103.1 55.47 103.1"/><rect x="66.86" y="103.1" width="0.84" height="1.89"/><polygon points="66.86 103.1 66.86 103.16 67.65 103.16 67.65 104.93 66.91 104.93 66.91 103.1 66.86 103.1 66.86 103.16 66.86 103.1 66.8 103.1 66.8 105.05 67.76 105.05 67.76 103.05 66.8 103.05 66.8 103.1 66.86 103.1"/><rect x="71.42" y="103.1" width="0.84" height="1.89"/><polygon points="71.42 103.1 71.42 103.16 72.21 103.16 72.21 104.93 71.47 104.93 71.47 103.1 71.42 103.1 71.42 103.16 71.42 103.1 71.36 103.1 71.36 105.05 72.32 105.05 72.32 103.05 71.36 103.05 71.36 103.1 71.42 103.1"/><rect x="81.78" y="103.08" width="0.84" height="1.89"/><polygon points="81.78 103.08 81.78 103.13 82.57 103.13 82.57 104.91 81.84 104.91 81.84 103.08 81.78 103.08 81.78 103.13 81.78 103.08 81.72 103.08 81.72 105.02 82.68 105.02 82.68 103.02 81.72 103.02 81.72 103.08 81.78 103.08"/><rect x="87.02" y="103.16" width="0.84" height="1.89"/><polygon points="87.02 103.16 87.02 103.22 87.81 103.22 87.81 104.99 87.07 104.99 87.07 103.16 87.02 103.16 87.02 103.22 87.02 103.16 86.96 103.16 86.96 105.1 87.92 105.1 87.92 103.1 86.96 103.1 86.96 103.16 87.02 103.16"/><rect x="98.11" y="103.19" width="0.84" height="1.89"/><polygon points="98.11 103.19 98.11 103.24 98.9 103.24 98.9 105.02 98.17 105.02 98.17 103.19 98.11 103.19 98.11 103.24 98.11 103.19 98.05 103.19 98.05 105.13 99.01 105.13 99.01 103.13 98.05 103.13 98.05 103.19 98.11 103.19"/><rect x="102.81" y="103.19" width="0.84" height="1.89"/><polygon points="102.81 103.19 102.81 103.24 103.6 103.24 103.6 105.02 102.87 105.02 102.87 103.19 102.81 103.19 102.81 103.24 102.81 103.19 102.75 103.19 102.75 105.13 103.71 105.13 103.71 103.13 102.75 103.13 102.75 103.19 102.81 103.19"/><polyline points="87.03 103.24 99.11 103.24 99.11 103.02 87.03 103.02"/><polyline points="102.72 103.24 115.04 103.24 115.04 103.02 102.72 103.02"/><rect x="114.19" y="103.22" width="0.84" height="1.89"/><polygon points="114.19 103.22 114.19 103.27 114.97 103.27 114.97 105.05 114.24 105.05 114.24 103.22 114.19 103.22 114.19 103.27 114.19 103.22 114.13 103.22 114.13 105.16 115.09 105.16 115.09 103.16 114.13 103.16 114.13 103.22 114.19 103.22"/><rect x="118.8" y="103.19" width="0.84" height="1.89"/><polygon points="118.8 103.19 118.8 103.24 119.59 103.24 119.59 105.02 118.86 105.02 118.86 103.19 118.8 103.19 118.8 103.24 118.8 103.19 118.75 103.19 118.75 105.13 119.7 105.13 119.7 103.13 118.75 103.13 118.75 103.19 118.8 103.19"/><polyline points="118.8 103.24 130.58 103.24 130.58 103.02 118.8 103.02"/><polyline points="150.77 103.24 162.28 103.24 162.28 103.02 150.77 103.02"/><polyline points="134.92 103.24 147.13 103.24 147.13 103.02 134.92 103.02"/><rect x="134.91" y="103.19" width="0.84" height="1.89"/><polygon points="134.91 103.19 134.91 103.24 135.69 103.24 135.69 105.02 134.96 105.02 134.96 103.19 134.91 103.19 134.91 103.24 134.91 103.19 134.85 103.19 134.85 105.13 135.81 105.13 135.81 103.13 134.85 103.13 134.85 103.19 134.91 103.19"/><rect x="129.67" y="103.19" width="0.84" height="1.89"/><polygon points="129.67 103.19 129.67 103.24 130.46 103.24 130.46 105.02 129.73 105.02 129.73 103.19 129.67 103.19 129.67 103.24 129.67 103.19 129.61 103.19 129.61 105.13 130.57 105.13 130.57 103.13 129.61 103.13 129.61 103.19 129.67 103.19"/><rect x="146.22" y="103.16" width="0.84" height="1.89"/><polygon points="146.22 103.16 146.22 103.22 147.01 103.22 147.01 104.99 146.28 104.99 146.28 103.16 146.22 103.16 146.22 103.22 146.22 103.16 146.17 103.16 146.17 105.1 147.13 105.1 147.13 103.1 146.17 103.1 146.17 103.16 146.22 103.16"/><rect x="150.79" y="103.16" width="0.84" height="1.89"/><polygon points="150.79 103.16 150.79 103.22 151.57 103.22 151.57 104.99 150.84 104.99 150.84 103.16 150.79 103.16 150.79 103.22 150.79 103.16 150.73 103.16 150.73 105.1 151.69 105.1 151.69 103.1 150.73 103.1 150.73 103.16 150.79 103.16"/><rect x="161.4" y="103.16" width="0.84" height="1.89"/><polygon points="161.4 103.16 161.4 103.22 162.19 103.22 162.19 104.99 161.46 104.99 161.46 103.16 161.4 103.16 161.4 103.22 161.4 103.16 161.34 103.16 161.34 105.1 162.3 105.1 162.3 103.1 161.34 103.1 161.34 103.16 161.4 103.16"/><rect x="166.86" y="103.19" width="0.84" height="1.89"/><polygon points="166.86 103.19 166.86 103.24 167.65 103.24 167.65 105.02 166.92 105.02 166.92 103.19 166.86 103.19 166.86 103.24 166.86 103.19 166.81 103.19 166.81 105.13 167.76 105.13 167.76 103.13 166.81 103.13 166.81 103.19 166.86 103.19"/><rect x="177.39" y="103.16" width="0.84" height="1.89"/><polygon points="177.39 103.16 177.39 103.22 178.18 103.22 178.18 104.99 177.45 104.99 177.45 103.16 177.39 103.16 177.39 103.22 177.39 103.16 177.34 103.16 177.34 105.1 178.29 105.1 178.29 103.1 177.34 103.1 177.34 103.16 177.39 103.16"/><rect x="182.29" y="103.13" width="0.84" height="1.89"/><polygon points="182.29 103.13 182.29 103.19 183.08 103.19 183.08 104.96 182.35 104.96 182.35 103.13 182.29 103.13 182.29 103.19 182.29 103.13 182.23 103.13 182.23 105.07 183.19 105.07 183.19 103.08 182.23 103.08 182.23 103.13 182.29 103.13"/><rect x="192.65" y="103.16" width="0.84" height="1.89"/><polygon points="192.65 103.16 192.65 103.22 193.44 103.22 193.44 104.99 192.71 104.99 192.71 103.16 192.65 103.16 192.65 103.22 192.65 103.16 192.59 103.16 192.59 105.1 193.55 105.1 193.55 103.1 192.59 103.1 192.59 103.16 192.65 103.16"/><rect x="198.03" y="103.19" width="0.84" height="1.89"/><polygon points="198.03 103.19 198.03 103.24 198.82 103.24 198.82 105.02 198.09 105.02 198.09 103.19 198.03 103.19 198.03 103.24 198.03 103.19 197.97 103.19 197.97 105.13 198.93 105.13 198.93 103.13 197.97 103.13 197.97 103.19 198.03 103.19"/><rect x="209.01" y="103.16" width="0.84" height="1.89"/><polygon points="209.01 103.16 209.01 103.22 209.8 103.22 209.8 104.99 209.06 104.99 209.06 103.16 209.01 103.16 209.01 103.22 209.01 103.16 208.95 103.16 208.95 105.1 209.91 105.1 209.91 103.1 208.95 103.1 208.95 103.16 209.01 103.16"/><rect x="214.44" y="103.13" width="0.84" height="1.89"/><polygon points="214.44 103.13 214.44 103.19 215.23 103.19 215.23 104.96 214.5 104.96 214.5 103.13 214.44 103.13 214.44 103.19 214.44 103.13 214.39 103.13 214.39 105.07 215.34 105.07 215.34 103.08 214.39 103.08 214.39 103.13 214.44 103.13"/><polyline points="214.43 103.24 225.29 103.24 225.29 103.02 214.43 103.02"/><polyline points="245.44 103.24 252.43 103.24 252.43 103.02 245.44 103.02"/><polyline points="229.16 103.24 241.45 103.24 241.45 103.02 229.16 103.02"/><rect x="224.41" y="103.13" width="0.84" height="1.89"/><polygon points="224.41 103.13 224.41 103.19 225.2 103.19 225.2 104.96 224.47 104.96 224.47 103.13 224.41 103.13 224.41 103.19 224.41 103.13 224.35 103.13 224.35 105.07 225.31 105.07 225.31 103.08 224.35 103.08 224.35 103.13 224.41 103.13"/><rect x="229.17" y="103.16" width="0.84" height="1.89"/><polygon points="229.17 103.16 229.17 103.22 229.96 103.22 229.96 104.99 229.22 104.99 229.22 103.16 229.17 103.16 229.17 103.22 229.17 103.16 229.11 103.16 229.11 105.1 230.07 105.1 230.07 103.1 229.11 103.1 229.11 103.16 229.17 103.16"/><rect x="240.54" y="103.1" width="0.84" height="1.89"/><polygon points="240.54 103.1 240.54 103.16 241.33 103.16 241.33 104.93 240.6 104.93 240.6 103.1 240.54 103.1 240.54 103.16 240.54 103.1 240.49 103.1 240.49 105.05 241.44 105.05 241.44 103.05 240.49 103.05 240.49 103.1 240.54 103.1"/><rect x="245.44" y="103.08" width="0.84" height="1.89"/><polygon points="245.44 103.08 245.44 103.13 246.23 103.13 246.23 104.91 245.5 104.91 245.5 103.08 245.44 103.08 245.44 103.13 245.44 103.08 245.38 103.08 245.38 105.02 246.34 105.02 246.34 103.02 245.38 103.02 245.38 103.08 245.44 103.08"/><polyline points="246.66 105.01 246.66 109.66 246.78 109.66 246.78 105.01"/><polyline points="246.78 109.77 250.75 109.77 250.75 109.66 246.78 109.66"/><polyline points="252.66 112.22 252.66 121.15 252.77 121.15 252.77 112.22"/><polyline points="224.06 121.23 224.06 122.83 224.17 122.83 224.17 121.23"/><polyline points="224.22 122.83 240.89 122.83 240.89 122.72 224.22 122.72"/><path d="M240.83,121.2v7.3H241v-7.3Z"/><polyline points="231.03 128.04 264.57 129.64 264.58 129.52 231.04 127.93"/><path d="M230.9,122.84v5H231v-5Z"/><path d="M231.83,122.81v5.13h.11v-5.13Z"/><path d="M233,122.75V128h.11v-5.26Z"/><path d="M234.11,122.75V128h.11v-5.21Z"/><path d="M235.18,122.75v5.34h.11v-5.34Z"/><path d="M236.25,122.75v5.38h.11v-5.38Z"/><path d="M237.26,122.84v5.41h.11v-5.41Z"/><path d="M238.47,122.78v5.57h.11v-5.57Z"/><path d="M239.6,122.75v5.57h.11v-5.57Z"/><path d="M241.88,121.26v7.29H242v-7.29Z"/><path d="M243.06,121.2v7.37h.11V121.2Z"/><path d="M244.18,121.17v7.39h.12v-7.39Z"/><path d="M245.23,121.29v7.36h.11v-7.36Z"/><path d="M246.35,121.32v7.27h.12v-7.27Z"/><path d="M247.48,121.26v7.56h.11v-7.56Z"/><polyline points="252.66 120.98 252.66 129.96 252.77 129.96 252.77 120.98"/><polyline points="252.74 117.26 265.44 117.26 265.44 117.15 252.74 117.15"/><polyline points="252.98 112.23 265.62 112.23 265.62 112.12 252.98 112.12"/><polyline points="252.56 111.32 266.05 111.32 266.05 111.21 252.56 111.21"/><path d="M264.62,129.76c.76-12,1.89-24.15,2.79-36.09h-.11c-.9,11.94-2,24.1-2.79,36.1Z"/><polyline points="267.36 93.72 274 93.72 274 93.61 267.36 93.61"/><polygon points="252.49 110.05 263.75 110.05 266.12 110.05 266.12 108.7 263.75 108.7 252.49 108.7 252.49 110.05 252.49 110.05"/><polygon points="266 109.43 267.3 94.01 273.55 94.01 273.55 92.65 266.06 92.65 264.65 109.32 266 109.43 266 109.43"/><polygon points="255.47 108.75 255.07 82.24 210.82 82.24 155.75 82.24 101.3 82.24 46.12 82.24 46.07 83.59 47.69 83.7 47.35 81.19 46.01 81.37 46.24 83.06 46.91 82.97 46.96 82.3 46.17 82.24 46.12 82.91 46.12 83.59 101.3 83.59 155.75 83.59 210.82 83.59 253.74 83.59 254.12 108.77 255.47 108.75 255.47 108.75"/><polygon class="cls-3" points="252.03 132.53 252.03 132.13 253.02 132.53 252.03 132.92 252.03 132.53"/><polyline points="146.29 132.58 252.1 132.58 252.1 132.47 146.29 132.47"/><polygon class="cls-3" points="45.39 132.53 45.39 132.92 44.41 132.53 45.39 132.13 45.39 132.53"/><polyline points="45.33 132.58 137.09 132.58 137.09 132.47 45.33 132.47"/><text class="cls-4" transform="translate(137.91 133.97)"><tspan class="cls-8">69</tspan><tspan class="cls-6" x="3.24" y="0">.</tspan><tspan class="cls-8" x="3.89" y="0">0</tspan><tspan x="5.51" y="0">9</tspan></text><polyline points="58.07 118.01 58.46 118.01 58.07 119 57.67 118.01 58.07 118.01"/><polyline points="58.01 113.57 58.01 118.14 58.13 118.14 58.13 113.57 58.01 113.57"/><polyline points="58.07 106.14 57.67 106.14 58.07 105.15 58.46 106.14 58.07 106.14"/><polyline points="58.01 106.01 58.01 110.32 58.13 110.32 58.13 106.01 58.01 106.01"/><text class="cls-5" transform="translate(55.57 113.29)">4<tspan class="cls-6" x="1.62" y="0">.</tspan><tspan x="2.27" y="0">8</tspan><tspan class="cls-7" x="3.89" y="0">1</tspan></text><path d="M30.31,121.27h-.45v.11h.45Zm.9,0h-.45v.11h.45Zm.9,0h-.45v.11h.45Zm.9,0h-.45v.11H33Zm.9,0h-.45v.11h.45Zm.9,0h-.45v.11h.45Zm.9,0h-.45v.11h.45Zm.9,0h-.45v.11h.45Zm.91,0h-.46v.11h.46Zm.9,0H38v.11h.45Zm.9,0h-.45v.11h.45Zm.9,0h-.45v.11h.45Zm.9,0h-.45v.11h.45Zm.9,0h-.45v.11H42Zm.9,0h-.45v.11h.45Z"/><path d="M34.92,86.13h-.05v.12h.05Zm.9,0h-.45v.12h.45Zm.9,0h-.45v.12h.45Zm.9,0h-.45v.12h.45Zm.9,0h-.45v.12h.45Zm.9,0H39v.12h.45Zm.9,0h-.45v.12h.45Zm.9,0h-.45v.12h.45Zm.91,0h-.45v.12h.45Zm.9,0h-.45v.12H43Z"/><path d="M44.24,135.27v.45h.11v-.45Zm0-.9v.45h.11v-.45Zm0-.9v.45h.11v-.45Zm0-.9V133h.11v-.45Zm0-.9v.45h.11v-.45Zm0-.9v.45h.11v-.45Zm0-.9v.45h.11v-.45Zm0-.9v.45h.11V129Zm0-.9v.45h.11v-.45Zm0-.9v.45h.11v-.45Zm0-.91v.46h.11v-.46Zm0-.9v.45h.11v-.45Zm0-.9v.45h.11v-.45Zm0-.9V124h.11v-.45Zm0-.9v.45h.11v-.45Zm0-.9v.45h.11v-.45Z"/><path d="M252.72,136.26v.45h.12v-.45Zm0-.9v.45h.12v-.45Zm0-.9v.45h.12v-.45Zm0-.9V134h.12v-.45Zm0-.9v.45h.12v-.45Zm0-.9v.45h.12v-.45Zm0-.91v.45h.12v-.45Zm0-.9v.45h.12V130Z"/><polyline points="51.51 103.1 251.28 103.1 251.28 102.98 51.51 102.98"/><path class="cls-1" d="M176.94,105.17h-1.5v3.69h1.5v-3.69"/><path class="cls-1" d="M178.09,108.9h-2.47v1.58h2.47V108.9"/><path class="cls-9" d="M178.12,108.9h0v1.58h0V108.9h0"/><path class="cls-1" d="M58,105.32H46.48v1.5h.07v-.18h1.5v.18H58v-.68h-.34l.33-.82m117.39,0H58.14l.32.82h-.34v.68H175.39v-1.5"/><polyline class="cls-10" points="46.48 105.32 46.35 105.32 46.35 106.82 46.48 106.82 46.48 105.32"/><polyline class="cls-10" points="58.14 105.32 58 105.32 57.67 106.14 58.01 106.14 58.01 106.01 58.13 106.01 58.13 106.14 58.46 106.14 58.14 105.32"/><polyline class="cls-10" points="58.13 106.01 58.01 106.01 58.01 106.14 58.01 106.82 58.13 106.82 58.13 106.14 58.13 106.01"/><path class="cls-1" d="M48.05,106.82h-1.5v8.84h1.5v-8.84"/><path class="cls-9" d="M48.05,115.66h0"/><path class="cls-9" d="M48.05,106.64h-1.5v.18h1.5v-.18"/><polyline class="cls-11" points="48.05 111.94 51.08 111.94 51.08 111.71 48.05 111.71"/><polyline class="cls-11" points="50.96 111.68 50.96 115.66 51.19 115.66 51.19 111.68"/><polyline class="cls-11" points="50.27 111.9 50.27 115.64 50.5 115.64 50.5 111.9"/><polyline class="cls-11" points="49.61 111.9 49.61 115.66 49.83 115.66 49.83 111.9"/><polyline class="cls-11" points="48.89 111.9 48.89 115.64 49.12 115.64 49.12 111.9"/><polyline class="cls-11" points="48.27 111.9 48.27 115.69 48.49 115.69 48.49 111.9"/><path class="cls-1" d="M66,119.17H62.55v.13H66v-.13m21.29,0H83.57v.13h3.74v-.13m21.48,0h-3.72v.13h3.72v-.13m21.51,0h-3.9v.13h3.9v-.13m21.16,0h-3.87v.13h3.87v-.13m21.23,0H169v.13h3.66v-.13m5.28-1.89H58.12V118h.34l-.39,1-.4-1H58v-.73H46.46v1.82h.15v0H62.22v0H178v-1.78"/><polyline class="cls-10" points="83.57 119.17 66.02 119.17 66.02 119.3 83.57 119.3 83.57 119.17"/><polyline class="cls-10" points="105.07 119.17 87.31 119.17 87.31 119.3 105.07 119.3 105.07 119.17"/><polyline class="cls-10" points="126.4 119.17 108.8 119.17 108.8 119.3 126.4 119.3 126.4 119.17"/><polyline class="cls-10" points="147.59 119.17 130.3 119.17 130.3 119.3 147.59 119.3 147.59 119.17"/><polyline class="cls-10" points="169.03 119.17 151.46 119.17 151.46 119.3 169.03 119.3 169.03 119.17"/><polyline class="cls-10" points="177.97 119.17 172.69 119.17 172.69 119.3 177.97 119.3 177.97 119.17"/><polyline class="cls-10" points="62.22 119.08 46.61 119.08 46.61 119.1 46.87 119.1 46.87 119.3 62.55 119.3 62.55 119.17 62.22 119.17 62.22 119.08"/><polyline class="cls-10" points="46.46 117.28 46.4 117.28 46.4 119.3 46.87 119.3 46.87 119.1 46.61 119.1 46.46 119.1 46.46 117.28"/><polyline class="cls-10" points="177.97 119.06 62.22 119.06 62.22 119.08 62.22 119.17 62.55 119.17 66.02 119.17 83.57 119.17 87.31 119.17 105.07 119.17 108.8 119.17 126.4 119.17 130.3 119.17 147.59 119.17 151.46 119.17 169.03 119.17 172.69 119.17 177.97 119.17 177.97 119.06"/><polyline class="cls-10" points="58.46 118.01 58.13 118.01 58.13 118.14 58.01 118.14 58.01 118.01 57.67 118.01 58.07 119 58.46 118.01"/><polyline class="cls-10" points="58.13 117.28 58.01 117.28 58.01 118.01 58.01 118.14 58.13 118.14 58.13 118.01 58.13 117.28"/><polygon points="121.04 59.88 121.04 60.1 181.86 60.1 181.86 61.17 121.27 61.17 121.27 59.88 121.04 59.88 121.04 60.1 121.04 59.88 120.82 59.88 120.82 61.63 182.31 61.63 182.31 59.66 120.82 59.66 120.82 59.88 121.04 59.88"/><polyline points="151.73 61.34 151.73 59.09 151.51 59.09 151.51 61.34"/><text class="cls-2" transform="translate(119.93 57.24)">0</text><text class="cls-2" transform="translate(182.58 56.92)">20m</text><text class="cls-12" transform="translate(96.43 112.99)">SARNI / CISTERN</text><text class="cls-12" transform="translate(181.14 115.66)">EME / FOUN<tspan class="cls-13" x="31.75" y="0">T</tspan><tspan x="34.11" y="0">AIN</tspan></text><text class="cls-12" transform="translate(127.42 127.89)"><tspan class="cls-14">C</tspan><tspan x="3" y="0">ADDE / STRE</tspan><tspan class="cls-15" x="30.44" y="0">E</tspan><tspan x="33.11" y="0">T</tspan></text></svg>